<?xml version="1.0" encoding="utf-8"?>
<!-- Generator: Adobe Illustrator 23.0.1, SVG Export Plug-In . SVG Version: 6.00 Build 0)  -->
<svg version="1.1" id="Livello_1" xmlns="http://www.w3.org/2000/svg" xmlns:xlink="http://www.w3.org/1999/xlink" x="0px" y="0px"
	 viewBox="0 0 18 18" style="enable-background:new 0 0 18 18;" xml:space="preserve">
<style type="text/css">
	.st0{fill:#555555;}
	.st1{fill:#0A94A9;}
	.st2{fill:#008091;}
	.st3{fill:#5AB9BC;}
	.st4{fill:#7AC3C4;}
</style>
<g>
	<g>
		<path class="st0" d="M9.4,18h3.8v-4.3L12,12.5H9.4V18z M10.2,17.2v-4h1.6l0.6,0.6v3.4H10.2z"/>
	</g>
	<g>
		<path class="st0" d="M3.1,18h0.8v-5.5H0V18h0.8v-4.8h2.3V18z"/>
	</g>
	<g>
		<path class="st0" d="M14.2,18H18v-3.2h-3.1v-2.4h-0.8V18H14.2z M17.2,17.2h-2.3v-1.6h2.3V17.2z"/>
	</g>
	<g>
		<path class="st0" d="M4.7,18h3.8v-3.2h-3v-1.6h2.9v-0.8H4.7v3.2h3v1.5h-3V18z"/>
	</g>
</g>
<g>
	<path class="st1" d="M10.8,6.8c0,0-1.2,0.5-3.9,0.2C4.4,6.7,1.8,5.8,1.8,5.8S0.9,5.4,0.2,5.3C-0.6,5.1,1.5,5.4,4.1,7
		c3.7,2.3,8.4,0.5,8.4,0.5l0.8-0.9"/>
	<path class="st2" d="M13.5,6.4c0,0-1.1,1.2-3.6,0.6C8,6.6,8.1,5.6,5.6,5.7S3.3,6.3,1.8,6.3c-1.2,0-1.8-0.4-1.8-0.4s1,0.5,2.3,0.2
		s1.8-0.8,3.8-1.1c1.5-0.2,1.6-0.1,3.6,0.4S13.5,6.4,13.5,6.4z"/>
	<path class="st1" d="M2.8,3.3c0,0,1.5-0.1,3.8-0.8C8.4,2,9.8,2.2,9.8,2.2s1.9,0.1,3.3,1.7C14.4,5.5,18,5.3,18,5.3S15.3,6.2,13,5.9
		S9.6,4.4,9.6,4.4S7.8,2.7,5.6,3C3.8,3.3,2.8,3.3,2.8,3.3z"/>
	<path class="st3" d="M18,5.3c-0.5-0.4-1-0.8-2.6-1s-3.7,0.9-6.4,0.9c-2.8,0-4.6-1.6-4.2-1.4C5.2,4.1,6,4.1,7.2,4.1s2.4-0.3,3.5-0.6
		c1.2-0.2,2.4-0.6,4.1-0.3C16.6,3.7,17.7,4.9,18,5.3C18,5.2,18,5.3,18,5.3s-2.5-0.5-5,1.2C11.3,7.5,11,8.7,9.7,9
		C8.3,9.3,7.3,9,7.3,9S9,9.8,11.1,9.4c2.1-0.4,3.2-2.2,4-2.8C16,6,16.5,5.7,17.5,5.4C18,5.3,18,5.3,18,5.3z"/>
	<path class="st4" d="M17.1,6C17.1,6,17.1,6,17.1,6c-0.5,0-2.8,0.1-5.5-0.7C8.8,4.4,5,6.2,5,6.2S2.5,7.4,1.4,8.1
		c-1.1,0.8,3.1-2,7.7-2c1.3,0,3.2,0.8,4.4,1c1.4,0.2,2.2-0.1,2.8-0.4C17,6.4,17.1,6,17.1,6"/>
</g>
</svg>
