<?xml version="1.0" encoding="utf-8"?>
<!-- Generator: Adobe Illustrator 23.0.1, SVG Export Plug-In . SVG Version: 6.00 Build 0)  -->
<svg version="1.1" id="Livello_1" xmlns="http://www.w3.org/2000/svg" xmlns:xlink="http://www.w3.org/1999/xlink" x="0px" y="0px"
	 viewBox="0 0 200 64" style="enable-background:new 0 0 200 64;" xml:space="preserve">
<style type="text/css">
	.st0{fill:#F7EB5B;}
	.st1{fill:#DF643A;}
	.st2{fill:#E9963E;}
	.st3{fill:#AF3034;}
	.st4{fill:#555555;}
	.st5{display:none;}
</style>
<g>
	<g>
		<g>
			<path class="st0" d="M57.9,38.4c0,0,6.8-2.6-11-3.9c-17.5-1.5-3.8-0.3,7.1-1.8c11-1.5-13-20.4-21-23s13.1,2.9,26.9,12.9
				c18,13,0.4-22.6,0.4-22.6s17.7,17.5,13,29.8C70.4,37.3,86,18.3,86,13.3s4.2,12.9-15.9,21.2"/>
			<path class="st1" d="M54.9,47.1c0,0,4.6-6.2-16.3-8.2C17.3,36.8,21,42.4,21,42.4s-5.8-5.7,20.1-6.8c11-0.3,15.2,3.6,15.2,3.6"/>
			<path class="st0" d="M54.9,45.9c0,0,3.3-3.3-10.5,3.3s-3,1.1,3.8-3.6s-23.1-1-30.2,1.1s11.2-4.7,27.6-6.5s-15.2-6.8-15.2-6.8
				S50.6,32.7,56,36c4.6,2.5,5.1-6.8,1.6-8.2c-3.3-1.5,11.7,2.1,3.3,12.1"/>
			<path class="st1" d="M66.2,32.7c0,0,4.6,2.9,9.1-6.1c4.6-9-0.4-8.2-0.4-8.2s7.1-0.8,3.3,9.3c-1.7,3.9-5.9,6.5-5.9,6.5"/>
			<path class="st1" d="M61.2,36.3c0,0,10.5-1.1-0.9-15.8s-15-8.7-15-8.7s7-8,20.5,7.2c5.4,5.7,5.4,12.9,5.4,12.9"/>
			<path class="st1" d="M59.1,43.5c0,0,11-7.9-19.7-18s-28-0.3-28-0.3S6,14.8,45.3,21.6c16.3,2.9,20.5,10,20.5,10"/>
			<path class="st2" d="M59.9,42c0,0,4.2-2.8-10-0.3c-14.7,2.5-3,0.3,5.1-2.5S36,28.3,29,28.3s11.7-1,26.4,3.3s-9.1-15.2-9.1-15.2
				s17.1,7.2,20.1,13.7c2.5,5.1,7.5-6.5,5.4-9.8s8.9,7.5-3.3,16.5"/>
			<path class="st3" d="M79.2,30.9c0,0,2.1-2.6,4.2-2.6c1.6,0,0.9,2.1-1.7,1.8c-0.4,0-0.4,0-1.2,0c-2.6,1-17.1,5.7-28.1,16.5
				S26.6,56,26.6,56s15.4,2.1,36-13.6C77.8,30.8,81,30.2,81,30.2"/>
		</g>
		<g>
			<path class="st4" d="M111,63.7h-5.1V52.9l-5.1-3.8h-9.5v14.6h-5.1V28.9H111v12l-5.1,5.7l5.1,3.8V63.7z M91.4,44.1h9.5L106,39
				v-5.1H91.4C91.4,34,91.4,44.1,91.4,44.1z"/>
			<path class="st4" d="M140.9,28.9h-24.8v29.8v5.1h5.1h14.5h5.1v-5.1v-8.2l-5.1-3.9l5.1-5.7v-12H140.9z M121.2,58.8v-9.4h9.5
				l5.1,3.8v5.7h-14.6V58.8z M135.8,39.1l-5.1,5.1h-9.5V34h14.6V39.1z"/>
		</g>
		<g>
			<path class="st4" d="M145.1,37.5c0-0.2,0.2-0.4,0.4-0.4h1.3c0.2,0,0.4,0.2,0.4,0.4v24.2c0,0.2,0.1,0.2,0.2,0.2h7.2
				c0.2,0,0.4,0.2,0.4,0.4v1.1c0,0.2-0.2,0.4-0.4,0.4h-9.1c-0.2,0-0.4-0.2-0.4-0.4V37.5z"/>
			<path class="st4" d="M156.7,37.5c0-0.2,0.2-0.4,0.4-0.4h1.3c0.2,0,0.4,0.2,0.4,0.4v26c0,0.2-0.2,0.4-0.4,0.4h-1.3
				c-0.2,0-0.4-0.2-0.4-0.4V37.5z"/>
			<path class="st4" d="M160.9,50.5c0-7.8,0.1-8.9,0.5-10c0.8-2.4,2.6-3.7,5.4-3.7c3.5,0,5.3,2,5.8,5.3c0,0.3,0,0.4-0.3,0.5
				l-1.1,0.2c-0.3,0.1-0.4,0-0.5-0.3c-0.4-2.4-1.5-3.8-3.9-3.8c-1.7,0-2.9,0.7-3.4,2.4c-0.3,0.9-0.4,1.7-0.4,9.4
				c0,7.7,0.1,8.5,0.4,9.4c0.6,1.6,1.8,2.4,3.5,2.4c1.7,0,2.9-0.8,3.5-2.4c0.3-0.9,0.4-1.7,0.4-7.8c0-0.2-0.1-0.2-0.2-0.2h-3.2
				c-0.2,0-0.4-0.2-0.4-0.4v-1.1c0-0.2,0.2-0.4,0.4-0.4h5c0.2,0,0.4,0.2,0.4,0.4v1.1c0,6.9-0.1,8-0.5,9.1c-0.8,2.4-2.6,3.7-5.4,3.7
				c-2.8,0-4.6-1.3-5.4-3.7C161,59.4,160.9,58.4,160.9,50.5z"/>
			<path class="st4" d="M174.3,37.5c0-0.2,0.2-0.4,0.4-0.4h1.3c0.2,0,0.4,0.2,0.4,0.4V49c0,0.2,0.1,0.2,0.2,0.2h7.1
				c0.2,0,0.2-0.1,0.2-0.2V37.5c0-0.2,0.2-0.4,0.4-0.4h1.3c0.2,0,0.4,0.2,0.4,0.4v26c0,0.2-0.2,0.4-0.4,0.4h-1.3
				c-0.2,0-0.4-0.2-0.4-0.4V51.4c0-0.2-0.1-0.2-0.2-0.2h-7.1c-0.2,0-0.2,0.1-0.2,0.2v12.2c0,0.2-0.2,0.4-0.4,0.4h-1.3
				c-0.2,0-0.4-0.2-0.4-0.4V37.5z"/>
			<path class="st4" d="M193,63.9c-0.2,0-0.4-0.2-0.4-0.4V39.3c0-0.2-0.1-0.2-0.2-0.2h-4.7c-0.2,0-0.4-0.2-0.4-0.4v-1.1
				c0-0.2,0.2-0.4,0.4-0.4h12c0.2,0,0.4,0.2,0.4,0.4v1.1c0,0.2-0.2,0.4-0.4,0.4h-4.7c-0.2,0-0.2,0.1-0.2,0.2v24.2
				c0,0.2-0.2,0.4-0.4,0.4H193z"/>
		</g>
	</g>
	<g id="Livello_3" class="st5">
	</g>
</g>
</svg>
