<?xml version="1.0" encoding="utf-8"?>
<!-- Generator: Adobe Illustrator 23.0.1, SVG Export Plug-In . SVG Version: 6.00 Build 0)  -->
<svg version="1.1" id="Livello_1" xmlns="http://www.w3.org/2000/svg" xmlns:xlink="http://www.w3.org/1999/xlink" x="0px" y="0px"
	 viewBox="0 0 18 18" style="enable-background:new 0 0 18 18;" xml:space="preserve">
<style type="text/css">
	.st0{fill:#FFFFFF;}
	.st1{fill:#F7EB5B;}
	.st2{fill:#DF643A;}
	.st3{fill:#E9963E;}
	.st4{fill:#AF3034;}
</style>
<path class="st0" d="M3.9,18H3.1v-1.7l-0.8-0.6H0.8V18H0v-5.5h3.9v1.9l-0.8,0.9l0.8,0.6V18z M0.8,14.9h1.5l0.8-0.8v-0.8H0.8
	C0.8,13.3,0.8,14.9,0.8,14.9z"/>
<g>
	<path class="st1" d="M11.2,10.7c0,0,1.6-0.7-2.6-1.1s-0.9-0.1,1.7-0.5s-3.1-5.7-5-6.4s3.1,0.8,6.4,3.6C16,9.9,11.8,0,11.8,0
		s4.2,4.9,3.1,8.3c-0.7,2.1,3-3.2,3-4.6s1,3.6-3.8,5.9"/>
	<path class="st2" d="M10.5,13.1c0,0,1.1-1.7-3.9-2.3c-5.1-0.6-4.2,1-4.2,1S1,10.2,7.2,9.9c2.6-0.1,3.6,1,3.6,1"/>
	<path class="st1" d="M10.5,12.8c0,0,0.8-0.9-2.5,0.9s-0.7,0.3,0.9-1S3.4,12.4,1.7,13s2.7-1.3,6.6-1.8S4.7,9.3,4.7,9.3
		s4.8-0.2,6.1,0.7c1.1,0.7,1.2-1.9,0.4-2.3C10.4,7.3,14,8.3,12,11.1"/>
	<path class="st2" d="M13.2,9.1c0,0,1.1,0.8,2.2-1.7s-0.1-2.3-0.1-2.3s1.7-0.2,0.8,2.6c-0.4,1.1-1.4,1.8-1.4,1.8"/>
	<path class="st2" d="M12,10.1c0,0,2.5-0.3-0.2-4.4S8.2,3.3,8.2,3.3s1.7-2.2,4.9,2c1.3,1.6,1.3,3.6,1.3,3.6"/>
	<path class="st2" d="M11.5,12.1c0,0,2.6-2.2-4.7-5S0.1,7,0.1,7s-1.3-2.9,8.1-1c3.9,0.8,4.9,2.8,4.9,2.8"/>
	<path class="st3" d="M11.7,11.7c0,0,1-0.8-2.4-0.1c-3.5,0.7-0.7,0.1,1.2-0.7s-4.5-3-6.2-3s2.8-0.3,6.3,0.9S8.4,4.6,8.4,4.6
		s4.1,2,4.8,3.8c0.6,1.4,1.8-1.8,1.3-2.7s2.1,2.1-0.8,4.6"/>
	<path class="st4" d="M16.3,8.6c0,0,0.5-0.7,1-0.7c0.4,0,0.2,0.6-0.4,0.5c-0.1,0-0.1,0-0.3,0C16,8.7,12.5,10,9.9,13
		s-6.2,2.6-6.2,2.6s3.7,0.6,8.6-3.8c3.6-3.2,4.4-3.4,4.4-3.4"/>
</g>
<path class="st0" d="M8.6,12.5H4.7v4.7V18h0.8h2.3h0.8v-0.8v-1.3l-0.8-0.6l0.8-0.9V12.5z M5.5,17.2v-1.5H7l0.8,0.6v0.9H5.5z
	 M7.8,14.1L7,14.9H5.5v-1.6h2.3V14.1z"/>
<path class="st0" d="M9.3,18v-3.9h0.6v3.3h1.1V18H9.3z"/>
<path class="st0" d="M11.2,18v-3.9h0.6V18H11.2z"/>
<path class="st0" d="M12,15c0-0.2,0-0.3,0.1-0.4c0.1-0.1,0.1-0.2,0.2-0.3c0.1-0.1,0.2-0.1,0.3-0.2s0.2-0.1,0.3-0.1s0.2,0,0.3,0.1
	s0.2,0.1,0.3,0.2c0.1,0.1,0.2,0.2,0.2,0.3c0.1,0.1,0.1,0.3,0.1,0.4v0.2h-0.6V15c0-0.1,0-0.2-0.1-0.3c-0.1-0.1-0.2-0.1-0.3-0.1
	c-0.1,0-0.2,0-0.3,0.1c-0.1,0.1-0.1,0.2-0.1,0.3v2c0,0.1,0,0.2,0.1,0.3c0.1,0.1,0.2,0.1,0.3,0.1c0.1,0,0.2,0,0.3-0.1
	s0.1-0.2,0.1-0.3v-0.7h-0.4v-0.5h1v1.2c0,0.2,0,0.3-0.1,0.4c-0.1,0.1-0.1,0.2-0.2,0.3c-0.1,0.1-0.2,0.1-0.3,0.2
	C13.2,18,13,18,12.9,18s-0.2,0-0.3-0.1c-0.1,0-0.2-0.1-0.3-0.2c-0.1-0.1-0.2-0.2-0.2-0.3C12,17.4,12,17.3,12,17.1V15z"/>
<path class="st0" d="M14.1,18v-3.9h0.6v1.7h0.7v-1.7h0.6V18h-0.6v-1.7h-0.7V18H14.1z"/>
<path class="st0" d="M16.7,18v-3.3h-0.6v-0.5h1.8v0.5h-0.6V18H16.7z"/>
</svg>
