<?xml version="1.0" encoding="utf-8"?>
<!-- Generator: Adobe Illustrator 23.0.4, SVG Export Plug-In . SVG Version: 6.00 Build 0)  -->
<svg version="1.1" id="Livello_1" xmlns="http://www.w3.org/2000/svg" xmlns:xlink="http://www.w3.org/1999/xlink" x="0px" y="0px"
	 viewBox="0 0 255.1 64" style="enable-background:new 0 0 255.1 64;" xml:space="preserve">
<style type="text/css">
	.st0{fill:#FFFFFF;}
	.st1{fill:#30B9EC;}
	.st2{fill:#00709E;}
	.st3{fill:#83CDF1;}
	.st4{fill:#CCE8F8;}
	.st5{fill:#009ED1;}
</style>
<g>
	<g>
		<g>
			<polygon class="st0" points="147.1,63.9 141.9,63.9 141.9,34.5 118.3,34.5 118.3,63.9 113.4,63.9 113.4,29.2 147.1,29.2 			"/>
			<path class="st0" d="M187,63.9h-5.1V49.4h-23.6V64h-5.1V29.2h33.4L187,63.9L187,63.9z M158.4,44.4H182v-9.9h-23.6V44.4z"/>
		</g>
		<path class="st0" d="M107.1,63.9H102V53.1l-5-3.8H78.4v14.5h-5.1V29.4h33.6v12l-5,5.7l5,3.8L107.1,63.9L107.1,63.9z M78.4,44.4H97
			l4.9-5.2v-5H78.4V44.4z"/>
	</g>
	<g>
		<g>
			<path class="st1" d="M35.5,41.5c0,0-0.6,4.6-8.1,9.5c-7,4.5-11,3-11,3s7.1,2.7,14.6-3.9s6.3-8.7,6.3-8.7"/>
			<g>
				<path class="st2" d="M59.7,22.8c0,0-1.1-0.9-3-1.5c-1.5-0.4-2.1-1.5-2.1-1.5s-1-1.3-0.4-4.2c0.4-2.7-1.8-4.6-1.8-4.6
					s2.4,0.6,3.5,2.4c1,1.8,0.9,3.9,0.9,3.9s-0.4,3.1,1.2,4.2C59.2,22.2,59.7,22.8,59.7,22.8z"/>
			</g>
			<g>
				<path class="st3" d="M61.5,22.8c0,0-2.4-0.3-8.1-0.6c-3.6-0.2-4.3-4-4.3-4s-2.9-2.6-2.7-8.7C46.5,3.2,40.5,0,40.5,0
					s5.7,0.3,8.7,3.8s3.3,8.1,3.3,8.1s0.1,7.2,4.2,8.7C60,21.8,61.5,22.8,61.5,22.8z"/>
			</g>
			<g>
				<path class="st2" d="M62.4,22.7c0,0-2.7-0.4-7.5,0.4C51.3,24,49,22.5,49,22.5s-3.2-1.5-4.4-7.2c-1.2-5.9-7.6-7-7.6-7
					s5.7-1.7,9.3,0.4s5,6.6,5,6.6s1.5,6.8,5.8,6.8C60.6,22.2,62.4,22.7,62.4,22.7z"/>
			</g>
			<path class="st4" d="M41.5,36c0,0-5,7.8-18.5,11.7C9.7,51.6,5,47.8,5,47.8s9.6,6.8,23.7,0S39.6,40,39.6,40"/>
			<path class="st3" d="M70.6,22.7c-0.4,0-1.1,0.3-1.3,0.9c-1.5,2.4-9.2,9.8-16.2,8.2c-5.1-1.4-18.9,16-24.9,23.7
				c-0.2,0.1-0.4,0-0.3-0.1c4.2-6.3,12.5-18.9,18.3-24.6c19.9-19.7,19.8-12,24.6-9.6c2.8,1.4,12.4,0.4,12.4,0.9
				C83.7,21.8,70.6,22.7,70.6,22.7z"/>
			<g>
				<path class="st5" d="M58.5,23.3c0,0-1.5-0.4-4.7-0.2c-2.1,0.2-3.4-0.6-3.4-0.6s-1.9-1.1-2.7-3.9c-0.6-3-4.5-3.9-4.5-3.9
					s3.4-0.5,5.7,0.9c2.1,1.4,3,3.5,3,3.5s0.9,3.3,3.4,3.6C57.3,23,58.5,23.3,58.5,23.3z"/>
			</g>
			<g>
				<path class="st1" d="M60.1,23.1c0,0-3.1,0.6-11.5,3C43.6,27.5,41,24,41,24s-4.9-1.4-7.5-7.5c-2.7-6.3-12-7.1-12-7.1
					s7.8-2.1,13.4-0.2c5.7,2.1,8.1,6.6,8.1,6.6s3.1,7.2,9.4,7.1C57.6,22.7,60.1,23.1,60.1,23.1z"/>
			</g>
			<g>
				<path class="st4" d="M60.3,23.1c0,0-3.9,0.6-10.1,3.9c-4.7,2.4-8.2,1.8-8.2,1.8s-5.1,0-9.2-5.2C28.6,18,19.3,20,19.3,20
					s7.1-4.2,13.1-3.4C38.4,17,42,21,42,21s5,6,10.8,4.2C57.7,23.5,60.3,23.1,60.3,23.1z"/>
			</g>
			<g>
				<path class="st2" d="M39,39.5c0,0-1.2,1.3-2.6,3.4c-0.9,2-2.2,2.9-2.2,2.9s-1.6,1.5-4.2,2.1s-5.1,3.9-5.1,3.9s1.5-2.7,3.5-4.5
					c2.1-1.8,4.2-2.6,4.2-2.6s3-0.6,4.5-2.8C38.2,40.4,39,39.5,39,39.5z"/>
			</g>
		</g>
	</g>
</g>
</svg>
