<?xml version="1.0" encoding="utf-8"?>
<!-- Generator: Adobe Illustrator 23.0.1, SVG Export Plug-In . SVG Version: 6.00 Build 0)  -->
<svg version="1.1" id="Livello_1" xmlns="http://www.w3.org/2000/svg" xmlns:xlink="http://www.w3.org/1999/xlink" x="0px" y="0px"
	 viewBox="0 0 18 18" style="enable-background:new 0 0 18 18;" xml:space="preserve">
<style type="text/css">
	.st0{fill:#FFFFFF;}
	.st1{fill:#30B9EC;}
	.st2{fill:#00709E;}
	.st3{fill:#83CDF1;}
	.st4{fill:#CCE8F8;}
	.st5{fill:#009ED1;}
</style>
<g>
	<path class="st0" d="M5.3,18H4.5v-1.7l-0.8-0.6H0.8V18H0v-5.5h5.3v1.9l-0.8,0.9l0.8,0.6V18z M0.8,14.9h2.9l0.8-0.8v-0.8H0.8
		C0.8,13.3,0.8,14.9,0.8,14.9z"/>
	<polygon class="st0" points="11.7,18 10.9,18 10.9,13.3 7.1,13.3 7.1,18 6.3,18 6.3,12.5 11.7,12.5 	"/>
	<path class="st0" d="M18,18h-0.8v-2.3h-3.7V18h-0.8v-5.5H18V18L18,18z M13.5,14.9h3.7v-1.6h-3.7C13.5,13.3,13.5,14.9,13.5,14.9z"/>
</g>
<g>
	<g>
		<path class="st1" d="M7,10.3c0,0-0.1,1.1-1.9,2.2c-1.6,1-2.5,0.7-2.5,0.7s1.6,0.6,3.3-0.9s1.4-2,1.4-2"/>
		<g>
			<path class="st2" d="M12.6,6c0,0-0.2-0.2-0.7-0.3c-0.3-0.1-0.5-0.3-0.5-0.3s-0.2-0.3-0.1-1c0.1-0.6-0.4-1.1-0.4-1.1
				s0.6,0.1,0.8,0.6c0.2,0.4,0.2,0.9,0.2,0.9s-0.1,0.7,0.3,1C12.4,5.8,12.6,6,12.6,6z"/>
		</g>
		<g>
			<path class="st3" d="M13,6c0,0-0.6-0.1-1.9-0.1c-0.8,0-1-0.9-1-0.9S9.4,4.4,9.5,3S8.2,0.8,8.2,0.8s1.3,0.1,2,0.8
				C10.9,2.4,11,3.5,11,3.5s0,1.7,1,2C12.6,5.8,13,6,13,6z"/>
		</g>
		<g>
			<path class="st2" d="M13.2,5.9c0,0-0.6-0.1-1.7,0.1c-0.8,0.2-1.3-0.1-1.3-0.1s-0.7-0.3-1-1.7C8.8,2.9,7.3,2.6,7.3,2.6
				s1.3-0.4,2.1,0.1s1.1,1.5,1.1,1.5S11,5.8,12,5.8C12.8,5.8,13.2,5.9,13.2,5.9z"/>
		</g>
		<path class="st4" d="M8.4,9c0,0-1.1,1.8-4.2,2.7s-4.1,0-4.1,0s2.2,1.6,5.4,0S8,9.9,8,9.9"/>
		<path class="st3" d="M15.1,5.9c-0.1,0-0.2,0.1-0.3,0.2C14.4,6.7,12.7,8.4,11,8c-1.1-0.3-4.3,3.7-5.7,5.4H5.2
			c1-1.4,2.9-4.3,4.2-5.7C14.1,3.3,14,5,15.1,5.6C15.8,5.9,18,5.7,18,5.8C18.1,5.8,15.1,5.9,15.1,5.9z"/>
		<g>
			<path class="st5" d="M12.3,6.1c0,0-0.3-0.1-1.1,0c-0.5,0-0.8-0.1-0.8-0.1S10,5.7,9.8,5c-0.1-0.7-1-0.9-1-0.9S9.6,4,10.1,4.4
				c0.5,0.3,0.7,0.8,0.7,0.8S11,5.9,11.6,6C12,6,12.3,6.1,12.3,6.1z"/>
		</g>
		<g>
			<path class="st1" d="M12.7,6.1c0,0-0.7,0.1-2.7,0.7C8.9,7.1,8.2,6.3,8.2,6.3S7.1,6,6.5,4.6C5.9,3.1,3.8,2.9,3.8,2.9
				s1.8-0.5,3.1,0s1.9,1.5,1.9,1.5S9.4,6.1,10.9,6C12.1,5.9,12.7,6.1,12.7,6.1z"/>
		</g>
		<g>
			<path class="st4" d="M12.7,6.1c0,0-0.9,0.1-2.3,0.9C9.3,7.5,8.5,7.4,8.5,7.4s-1.2,0-2.1-1.2c-1-1.3-3.1-0.8-3.1-0.8s1.6-1,3-0.8
				c1.4,0.1,2.2,1,2.2,1S9.6,7,11,6.6C12.1,6.1,12.7,6.1,12.7,6.1z"/>
		</g>
		<g>
			<path class="st2" d="M7.8,9.8c0,0-0.3,0.3-0.6,0.8C7,11,6.7,11.3,6.7,11.3s-0.4,0.3-1,0.5c-0.6,0.1-1.2,0.9-1.2,0.9
				s0.3-0.6,0.8-1s1-0.6,1-0.6s0.7-0.1,1-0.7C7.6,10,7.8,9.8,7.8,9.8z"/>
		</g>
	</g>
</g>
</svg>
