<?xml version="1.0" encoding="utf-8"?>
<!-- Generator: Adobe Illustrator 23.0.1, SVG Export Plug-In . SVG Version: 6.00 Build 0)  -->
<svg version="1.1" id="Livello_1" xmlns="http://www.w3.org/2000/svg" xmlns:xlink="http://www.w3.org/1999/xlink" x="0px" y="0px"
	 viewBox="0 0 18 18" style="enable-background:new 0 0 18 18;" xml:space="preserve">
<style type="text/css">
	.st0{fill:#555555;}
</style>
<g>
	<g>
		<path class="st0" d="M0,11.9L0,11.9L0,11.9z"/>
		<path class="st0" d="M0.1,12C0.1,12,0,12,0.1,12C0,12,0,12,0.1,12z"/>
		<path class="st0" d="M15.1,5.8c-0.8-0.4-1-1.5-3.1,0c-0.2-0.3-0.2-0.9-0.2-0.9s0-0.5-0.2-0.9s-0.7-0.5-0.8-0.5
			c-0.1-0.4-0.2-1.1-0.7-1.6C9.4,1.1,8.1,1,8.1,1s1.2,0.7,1.3,2C8.6,2.5,7.3,2.9,7.3,2.9S8.7,3.1,9,4.3c-0.1,0-0.2,0-0.2,0
			s0.1,0,0.3,0.1c0,0,0,0,0,0.1c0.1,0.6,0.3,1,0.6,1.3c-0.7-0.5-1-1.1-1-1.1S8.2,3.6,6.9,3.1s-3.1,0-3.1,0S6,3.3,6.6,4.8l0,0
			c-0.1,0-0.2,0-0.3,0c-1.4-0.1-3,0.8-3,0.8s2.1-0.4,3.1,0.8c0.9,1.2,2.1,1.2,2.1,1.2s0.8,0.1,1.8-0.4C10.1,7.4,9.8,7.7,9.5,8
			C9.1,8.3,8.8,8.8,8.4,9.3l0,0c0,0-0.4,0.6-1.4,1.3l0,0l0,0c-0.7,0.5-1.6,1-2.9,1.4c-2.6,0.7-3.8,0.2-4.1,0.1
			c0.4,0.2,2.4,1.3,5.2,0C4.8,12.5,4.5,13,4.5,13s0.6-0.7,1.2-0.9C5.8,12.1,6,12,6.1,12c-0.3,0.3-0.6,0.5-1,0.8
			c-1.6,1-2.5,0.7-2.5,0.7s1.6,0.6,3.3-0.9c0.1-0.1,0.2-0.2,0.3-0.2c-0.4,0.5-0.7,1-0.9,1.4c0,0,0,0.1,0.1,0C6.7,12,9.8,8,11.1,8.3
			c1.6,0.3,3.4-1.4,3.7-1.9c0.1-0.1,0.2-0.2,0.3-0.2l3-0.2C18,5.9,15.8,6.1,15.1,5.8z M11.3,4.6c-0.1,0.3,0,0.6,0,0.7
			c-0.4-0.6-0.4-1.5-0.4-1.5s0-0.1,0-0.2C10.9,3.5,11.4,4,11.3,4.6z"/>
	</g>
	<g>
		<path class="st0" d="M5.3,18H4.5v-1.7l-0.8-0.6H0.8V18H0v-5.5h5.3v1.9l-0.8,0.9l0.8,0.6V18z M0.8,14.9h2.9l0.8-0.8v-0.8H0.8
			C0.8,13.3,0.8,14.9,0.8,14.9z"/>
		<polygon class="st0" points="11.7,18 10.9,18 10.9,13.3 7.1,13.3 7.1,18 6.3,18 6.3,12.5 11.7,12.5 		"/>
		<path class="st0" d="M18,18h-0.8v-2.3h-3.7V18h-0.8v-5.5H18V18L18,18z M13.5,14.9h3.7v-1.6h-3.7C13.5,13.3,13.5,14.9,13.5,14.9z"
			/>
	</g>
</g>
</svg>
