<?xml version="1.0" encoding="utf-8"?>
<!-- Generator: Adobe Illustrator 23.0.1, SVG Export Plug-In . SVG Version: 6.00 Build 0)  -->
<svg version="1.1" id="Livello_1" xmlns="http://www.w3.org/2000/svg" xmlns:xlink="http://www.w3.org/1999/xlink" x="0px" y="0px"
	 viewBox="0 0 18 18" style="enable-background:new 0 0 18 18;" xml:space="preserve">
<style type="text/css">
	.st0{fill:#555555;}
</style>
<g>
	<path class="st0" d="M14.1,3.2c3.1,3.1,3.2,8,0.3,11.2c0.1-0.1,0.2-0.2,0.3-0.3c3.2-3.2,3.2-8.3,0-11.5c-3.2-3.2-8.3-3.2-11.5,0
		C3.1,2.6,3,2.7,2.9,2.8C6.1,0,11,0.1,14.1,3.2z"/>
	<path class="st0" d="M1.2,7.9C2.3,3.7,6.5,1.2,10.7,2c-0.1,0-0.3-0.1-0.5-0.1c-4.3-1.2-8.8,1.4-10,5.8c-1.2,4.3,1.4,8.8,5.8,10
		c0.2,0,0.3,0.1,0.5,0.1C2.4,16.4,0.1,12.1,1.2,7.9z"/>
	<path class="st0" d="M17.7,7.6c0-0.2-0.1-0.3-0.1-0.5c0.9,4.2-1.7,8.4-5.9,9.5c-4.2,1.1-8.5-1.2-9.9-5.3c0,0.2,0.1,0.3,0.1,0.5
		c1.2,4.3,5.6,6.9,10,5.8S18.9,12,17.7,7.6z"/>
</g>
</svg>
