<?xml version="1.0" encoding="utf-8"?>
<!-- Generator: Adobe Illustrator 23.0.1, SVG Export Plug-In . SVG Version: 6.00 Build 0)  -->
<svg version="1.1" id="Livello_1" xmlns="http://www.w3.org/2000/svg" xmlns:xlink="http://www.w3.org/1999/xlink" x="0px" y="0px"
	 viewBox="0 0 18 18" style="enable-background:new 0 0 18 18;" xml:space="preserve">
<style type="text/css">
	.st0{fill:#555555;}
</style>
<path class="st0" d="M14.8,3.8c-1-0.2-1.8-0.2-2.5-0.1c-1.2-0.9-2.6-1-2.6-1S8.4,2.5,6.6,3C4.3,3.7,2.8,3.8,2.8,3.8s1,0,2.8-0.3
	C7.1,3.2,8.3,3.9,9,4.4C8.4,4.5,7.8,4.6,7.2,4.6c-1.2,0-2,0-2.4-0.3C4.5,4.1,5.5,5.1,7.4,5.5c-0.3,0-0.7,0-1.2,0.1
	c-1.9,0.2-2.5,0.6-3.6,1C2.1,6.4,1.8,6.3,1.8,6.3S0.9,5.9,0.2,5.8c-0.6-0.1,0.5,0,2.2,0.8c0,0,0,0,0,0C1.1,6.9,0.1,6.4,0.1,6.4
	s0.6,0.4,1.7,0.4c0.4,0,0.6,0,0.9-0.1C3,6.9,3.4,7.1,3.8,7.3C3,7.7,2,8.2,1.4,8.6C0.7,9,2,8.2,4.1,7.5c2.6,1.6,5.7,1.2,7.3,0.8
	c-0.6,0.6-1,1.1-1.7,1.3c-1.3,0.3-2.3,0-2.3,0s1.6,0.7,3.7,0.3c1.6-0.3,2.7-1.5,3.4-2.2c0.8,0,1.4-0.2,1.8-0.5
	c0.7-0.3,0.8-0.7,0.8-0.7c-0.2,0-0.5,0-1,0c0.4-0.2,0.9-0.4,1.4-0.5C18,5.8,18,5.8,18,5.8s-0.6-0.1-1.5,0c-0.9-0.1-2-0.3-2.8-0.8
	c0.6-0.1,1.2-0.2,1.7-0.2C17,5,17.5,5.4,18,5.8C17.7,5.4,16.6,4.2,14.8,3.8z M8.5,5.7C8.5,5.7,8.5,5.7,8.5,5.7
	C8.5,5.7,8.4,5.7,8.5,5.7C8.5,5.7,8.5,5.7,8.5,5.7z M2.9,6.6c0.6-0.2,1-0.4,2.7-0.4c0.3,0,0.5,0,0.7,0C5.5,6.5,5,6.7,5,6.7
	S4.7,6.8,4.3,7C3.8,6.9,3.3,6.7,2.9,6.6z M6.9,7.5C6.3,7.4,5.7,7.3,5.1,7.2C6,6.9,6.9,6.7,8,6.6c0.5,0.3,1,0.6,1.9,0.8c0,0,0,0,0,0
	C9.3,7.6,8.3,7.6,6.9,7.5z"/>
<g>
	<g>
		<path class="st0" d="M9.4,18h3.8v-4.3L12,12.5H9.4V18z M10.2,17.2v-4h1.6l0.6,0.6v3.4H10.2z"/>
	</g>
	<g>
		<path class="st0" d="M3.1,18h0.8v-5.5H0V18h0.8v-4.8h2.3C3.1,13.2,3.1,18,3.1,18z"/>
	</g>
	<g>
		<path class="st0" d="M14.2,18H18v-3.2h-3.1v-2.4h-0.8V18H14.2z M17.2,17.2h-2.3v-1.6h2.3V17.2z"/>
	</g>
	<g>
		<path class="st0" d="M4.7,18h3.8v-3.2h-3v-1.6h2.9v-0.8H4.7v3.2h3v1.5h-3V18z"/>
	</g>
</g>
</svg>
