<?xml version="1.0" encoding="utf-8"?>
<!-- Generator: Adobe Illustrator 23.0.1, SVG Export Plug-In . SVG Version: 6.00 Build 0)  -->
<svg version="1.1" id="Livello_1" xmlns="http://www.w3.org/2000/svg" xmlns:xlink="http://www.w3.org/1999/xlink" x="0px" y="0px"
	 viewBox="0 0 18 18" style="enable-background:new 0 0 18 18;" xml:space="preserve">
<style type="text/css">
	.st0{fill:#555555;}
</style>
<g>
	<path class="st0" d="M12.1,3.8c0.8,0,1.4-0.6,1.4-1.4S12.9,1,12.1,1c-0.8,0-1.4,0.6-1.4,1.4S11.3,3.8,12.1,3.8z"/>
	<path class="st0" d="M12.1,14.2c-0.8,0-1.4,0.6-1.4,1.4s0.6,1.4,1.4,1.4c0.8,0,1.4-0.6,1.4-1.4S12.9,14.2,12.1,14.2z"/>
	<path class="st0" d="M12.1,7.6c-0.8,0-1.4,0.6-1.4,1.4s0.6,1.4,1.4,1.4c0.8,0,1.4-0.6,1.4-1.4S12.9,7.6,12.1,7.6z"/>
	<path class="st0" d="M5.9,1C5.1,1,4.5,1.6,4.5,2.4s0.6,1.4,1.4,1.4s1.4-0.6,1.4-1.4S6.7,1,5.9,1z"/>
	<path class="st0" d="M5.9,14.2c-0.8,0-1.4,0.6-1.4,1.4S5.1,17,5.9,17s1.4-0.6,1.4-1.4S6.7,14.2,5.9,14.2z"/>
	<path class="st0" d="M5.9,7.6C5.1,7.6,4.5,8.2,4.5,9s0.6,1.4,1.4,1.4S7.3,9.8,7.3,9S6.7,7.6,5.9,7.6z"/>
</g>
</svg>
