<svg xmlns="http://www.w3.org/2000/svg" viewBox="0 0 148.16 144.84"><defs><style>.cls-1{fill:#fff;}</style></defs><title>RDB-whiteRisorsa 1</title><g id="Livello_2" data-name="Livello 2"><g id="Livello_1-2" data-name="Livello 1"><g id="f0nbhA"><path d="M148,39.23c0,5.11.39,10.26-.18,15.3a10,10,0,0,1-3.8,6.61c-8.06,5.14-16.45,9.8-24.82,14.47a16.14,16.14,0,0,1-6.06,2c-5.22.52-7.36,3.74-5.3,8.49a6,6,0,0,1,.75,2.18c0,11.59.11,23.17-.29,34.74-.06,1.83-2.09,4.19-3.85,5.27-8.56,5.26-17.37,10.09-26,15.23-3.19,1.89-6,1.71-9.1-.14-8.5-5.05-17-10-25.68-14.87-3.27-1.84-4.45-4.63-4.47-8q-.12-15.09,0-30.16a12,12,0,0,1,1.13-4.44c1.76-4.18-.44-7.82-4.8-8.26A17.41,17.41,0,0,1,29,75.68C20.53,71,12,66.17,3.79,61A8.34,8.34,0,0,1,.26,55.19c-.35-10.81-.33-21.65,0-32.47a7.94,7.94,0,0,1,3.06-5.67C12.34,11.43,21.53,6,31,1.08c2.16-1.12,6-.79,8.24.39C48,6,56.47,11.14,65,16.11c1.06.61,2.54,1.35,2.81,2.31,1.36,5,5.48,3.26,8.63,3.76.68.1,1.62-.66,2.27-1.22,2.63-2.24,5-5,7.85-6.77C93.67,9.79,101,5.85,108.23,1.62c3.21-1.89,6.38-2.27,9.65-.39C126.45,6.15,135,11.17,143.59,16c3.16,1.78,4.65,4.17,4.5,7.88C147.88,29,148,34.13,148,39.23ZM34.71,12.13a15.27,15.27,0,0,0-2.2.82c-6.31,3.6-12.67,7.11-18.81,11-1.23.78-2.13,3-2.19,4.53-.25,6.33.1,12.68-.18,19-.17,3.7.93,6,4.28,7.77,5.48,2.85,10.73,6.12,16.12,9.13,4.16,2.32,7.29.56,7.42-4.23.12-4.48,0-9,0-13.45,0-3.84,1.36-6.77,5.06-8.6S51.5,34,55.08,31.82c4.53-2.69,4.68-5.66.28-8.27-6-3.55-12-6.93-18.09-10.35A21.81,21.81,0,0,0,34.71,12.13Zm74.21,34.94c0,4.33-.08,8.66,0,13,.13,4.82,3.19,6.61,7.36,4.33,2.84-1.55,5.48-3.59,8.46-4.77,9.65-3.83,15-9.87,11.92-20.88a83.29,83.29,0,0,1,.07-8.8c.38-3.59-1-5.67-4.17-7.32-5.47-2.86-10.65-6.26-16.14-9.08a6.88,6.88,0,0,0-5.47-.27c-6.31,3.24-12.44,6.84-18.53,10.49-3.93,2.34-3.82,5.29.16,7.73m5,74.52c0-3.55.11-7.11,0-10.65-.18-4.48-2.84-5.95-6.82-3.76-4.18,2.31-8.3,4.74-12.41,7.2a7.86,7.86,0,0,1-8.7,0c-4.11-2.45-8.22-4.89-12.41-7.2-4-2.19-6.64-.72-6.82,3.75-.14,3.55.48,7.2-.14,10.64-1.87,10.47,3.09,15.6,11.92,20.71s14.9,5.3,23.58-.06C94.22,121.45,100.83,117,97.66,106ZM69.09,45.49c0,2.47-.19,5,0,7.4.44,4.6-1.33,7.47-5.56,9.53a108.74,108.74,0,0,0-14.73,8.67A6.33,6.33,0,0,0,47,76.73c.83,2.6,3.33,2.57,5.73,1.14C57.9,74.79,63.21,72,68.33,68.8c3.82-2.36,7.35-2.52,11.23-.12,5,3.08,10.19,5.79,15.2,8.82,2.39,1.45,4.71,2.22,6.37-.53s.42-4.87-2.34-6.4c-5.27-2.91-10.38-6.1-15.66-9A7.12,7.12,0,0,1,79,54.53c.12-5.71,0-11.42,0-17.13,0-5.07-2-8.32-5-7.85-4.24.64-5.1,3.81-4.88,7.6C69.22,39.92,69.1,42.71,69.09,45.49ZM47.25,58c10.91-3.39,14.54-10.36,9.93-18.67C46.4,43,43.59,48.11,47.25,58ZM91.06,39.1c-4.83,8.43-.22,17,9.88,18.65C104.6,48.12,102.69,44.41,91.06,39.1ZM74.15,78.68c-2.08,1.16-3.7,2-5.29,2.95-7.25,4.17-7.31,4.31.06,8.4,2.07,1.16,4.85,2.12,7,1.71,2.58-.49,5-2.43,7.21-4A4,4,0,0,0,84.22,85C80.94,82.74,77.52,80.73,74.15,78.68Z"/><path class="cls-1" d="M74.15,78.68c3.37,2,6.79,4.06,10.07,6.27a4,4,0,0,1-1.06,2.77c-2.26,1.59-4.63,3.53-7.21,4-2.18.41-5-.55-7-1.71-7.37-4.09-7.31-4.23-.06-8.4C70.45,80.71,72.07,79.84,74.15,78.68Z"/></g></g></g></svg>