<svg xmlns="http://www.w3.org/2000/svg" viewBox="0 0 147.67 147.34">
    <defs>
        <style>

        </style>
    </defs>
    <title>RDB-whiteRisorsa 2</title>
    <path class="cls-2"
        d="M77.92,126.09q-24.6,0-49.21,0c-7.67,0-9-2.18-5.29-8.87,5.3-9.6,10.77-19.12,16-28.74,2.09-3.83,4.68-4.93,8.69-2.8s8.07,3.91,12.1,5.88c2.26,1.12,3.7.89,5.28-1.52,5.09-7.75,10.66-15.18,15.75-22.92,2.28-3.46,4.71-4,8.18-2.13,4,2.11,8.1,3.87,12,6.13,3.06,1.78,4.62.79,6.31-1.93,7.1-11.42,14.37-22.72,21.56-34.08,1.35-2.12,2.57-4.65,5.66-3.65,2.88.94,2.28,3.71,2.28,6q0,39.45,0,78.92c0,7.39-2.24,9.72-9.66,9.74C111,126.12,94.48,126.08,77.92,126.09Z" />
    <path class="cls-2"
        d="M74,147.34H9c-6.54,0-8.88-2.23-9-8.84-.1-8.35,0-16.71,0-25.06Q0,62.16,0,10.87A19.87,19.87,0,0,1,.84,4,5.68,5.68,0,0,1,6.49,0c2.69,0,5.14,1,6.15,4a22,22,0,0,1,1,7.3c0,39.29,0,78.59-.11,117.88,0,4.3,1.19,5.41,5.43,5.39,40.07-.15,80.13-.07,120.2-.11,3.45,0,6.59.34,8,4.08,1.83,4.85-1.39,8.78-7.28,8.78Q106.94,147.38,74,147.34Z" />
</svg>