<?xml version="1.0" encoding="utf-8"?>
<!-- Generator: Adobe Illustrator 23.0.2, SVG Export Plug-In . SVG Version: 6.00 Build 0)  -->
<svg version="1.1" id="Livello_1" xmlns="http://www.w3.org/2000/svg" xmlns:xlink="http://www.w3.org/1999/xlink" x="0px" y="0px"
	 viewBox="0 0 477 131.6" style="enable-background:new 0 0 477 131.6;" xml:space="preserve">
<style type="text/css">
	.st0{fill:#72B2DF;}
	.st1{fill:#4B4F54;}
	.st2{fill:#8D8F90;}
</style>
<title>RDB-posiOrizzontale</title>
<path class="st0" d="M104.5,22.5c22.6,22.6,23.7,59,2.4,82.9c0.9-0.8,1.7-1.6,2.6-2.4c23.5-23.8,23.2-62.1-0.5-85.5
	c-23.6-23.3-61.4-23.3-85,0c-0.8,0.8-1.6,1.7-2.4,2.6C45.5-1.3,81.9-0.2,104.5,22.5z"/>
<path class="st1" d="M8.8,57.5C17.1,26.6,48,7.5,79.4,14c-1.1-0.4-2.2-0.7-3.4-1C43.8,4.4,10.6,23.5,2,55.8s10.5,65.4,42.8,74l0,0
	c1.1,0.3,2.3,0.6,3.4,0.8C17.9,120.5,0.6,88.5,8.8,57.5z"/>
<path class="st2" d="M86.9,122.8c-30.9,8.2-62.9-9-73-39.4c0.2,1.1,0.5,2.3,0.8,3.4c8.6,32.2,41.7,51.4,74,42.8
	c32.2-8.6,51.4-41.7,42.8-74c-0.3-1.1-0.6-2.3-1-3.4C136.9,83.6,117.8,114.5,86.9,122.8z"/>
<path class="st1" d="M171.7,78.7c-0.4,0-0.7-0.1-0.8-0.4l-6.4-17c-0.7,0.1-1.4,0.1-2.1,0.1h-3.1c-0.3,0-0.4,0.1-0.4,0.4v16.4
	c0,0.4-0.3,0.6-0.8,0.6h-4.6c-0.4,0-0.8-0.2-0.8-0.6V38.6c0-0.4,0.3-0.6,0.8-0.6h8.9c9,0,13.8,3.1,13.8,11.7c0,5.5-2.2,8.8-6.2,10.4
	l7.1,18c0.1,0.2,0.1,0.4-0.1,0.5c-0.1,0.1-0.2,0.1-0.3,0.1H171.7z M170.2,49.7c0-5.5-2.2-7.2-7.6-7.2h-3.2c-0.3,0-0.4,0.1-0.4,0.4
	v13.8c0,0.2,0.2,0.4,0.4,0.4h3.2C167.8,57,170.2,55.3,170.2,49.7z"/>
<path class="st1" d="M196.9,38.6c0.1-0.4,0.4-0.6,0.8-0.6h4.5c0.4,0,0.7,0.2,0.8,0.6l10.7,39.5c0.1,0.4-0.2,0.6-0.7,0.6h-4.5
	c-0.4,0.1-0.8-0.2-0.8-0.6l-2.2-8.9h-11.3l-2.2,8.9c0,0.4-0.4,0.6-0.8,0.6h-4.5c-0.4,0-0.7-0.2-0.7-0.6L196.9,38.6z M204.5,65
	l-4.4-17.7h-0.2L195.3,65H204.5z"/>
<path class="st1" d="M224.5,38.6c0-0.4,0.3-0.6,0.8-0.6h10.5c6.4,0,10.1,2.2,11.8,6.4c0.9,2.2,1.2,4.9,1.2,14s-0.3,11.8-1.2,14
	c-1.6,4.2-5.3,6.4-11.8,6.4h-10.5c-0.5,0-0.8-0.2-0.8-0.6V38.6z M231,74.2h4.2c3.5,0,5.4-1.1,6.4-3.5c0.7-1.7,1-3.9,1-12.4
	s-0.3-10.7-1-12.4c-1-2.4-3-3.5-6.4-3.5H231c-0.3,0-0.5,0.1-0.5,0.4v31C230.6,74.1,230.7,74.2,231,74.2z"/>
<path class="st1" d="M261.8,38.6c0-0.4,0.3-0.6,0.8-0.6h4.6c0.5,0,0.8,0.2,0.8,0.6v39.5c0,0.4-0.3,0.6-0.8,0.6h-4.6
	c-0.5,0-0.8-0.2-0.8-0.6V38.6z"/>
<path class="st1" d="M280.9,58.3c0-11.6,0.2-13.2,0.9-14.9c1.6-3.8,5.2-6,10.9-6c6.7,0,10.7,2.9,11.4,9.1c0.1,0.4-0.1,0.7-0.6,0.7
	l-4.3,0.7c-0.5,0-0.8-0.1-0.8-0.5c-0.4-3.7-2.1-5.5-5.6-5.5c-2.7,0-4.3,0.9-5.1,2.8c-0.5,1.1-0.7,2.3-0.7,13.5s0.2,12.4,0.7,13.5
	c0.8,1.9,2.4,2.8,5.1,2.8c3.5,0,5.2-1.8,5.6-5.5c0-0.4,0.4-0.5,0.8-0.5l4.3,0.7c0.5,0.1,0.7,0.3,0.6,0.7c-0.7,6.2-4.7,9.1-11.4,9.1
	c-5.8,0-9.4-2.1-10.9-6C281.1,71.6,280.9,69.9,280.9,58.3z"/>
<path class="st1" d="M322.5,38.6c0.1-0.4,0.4-0.6,0.8-0.6h4.5c0.4,0,0.7,0.2,0.8,0.6l10.7,39.5c0.1,0.4-0.2,0.6-0.7,0.6h-4.5
	c-0.4,0.1-0.8-0.2-0.8-0.6l-2.2-8.9h-11.3l-2.2,8.9c-0.1,0.4-0.4,0.6-0.8,0.6h-4.5c-0.5,0-0.8-0.2-0.7-0.6L322.5,38.6z M330.1,65
	l-4.3-17.7h-0.2L320.9,65H330.1z"/>
<path class="st1" d="M350.1,38.6c0-0.4,0.3-0.6,0.8-0.6h4.6c0.5,0,0.8,0.2,0.8,0.6v35.3c0,0.2,0.1,0.4,0.5,0.4h13.3
	c0.5,0,0.8,0.2,0.8,0.6v3.3c0,0.4-0.3,0.6-0.8,0.6H351c-0.5,0-0.8-0.2-0.8-0.6L350.1,38.6L350.1,38.6z"/>
<path class="st2" d="M381.7,38.6c0-0.4,0.3-0.6,0.8-0.6h9.7c8.8,0,12.6,3.1,12.6,10.5c0,5.1-2.2,7.6-5.9,8.9v0.1
	c3.8,1,6.4,3.7,6.4,9.5c0,8.8-4.4,11.7-13.9,11.7h-8.9c-0.5,0-0.8-0.2-0.8-0.6L381.7,38.6L381.7,38.6z M391.9,55.6
	c4.8,0,6.8-1.4,6.8-6.5s-1.8-6.6-7-6.6h-3.4c-0.3,0-0.5,0.1-0.5,0.4v12.4c0,0.2,0.2,0.4,0.5,0.4L391.9,55.6z M388.3,74.2h3.4
	c5.5,0,7.6-1.6,7.6-7.2c0-5.5-2.2-7.1-7.3-7.1h-3.6c-0.3,0-0.5,0.1-0.5,0.4v13.6C387.8,74.1,388,74.2,388.3,74.2L388.3,74.2z"/>
<path class="st2" d="M417.3,38.6c0-0.4,0.3-0.6,0.8-0.6h4.6c0.4,0,0.7,0.2,0.7,0.6v39.5c0,0.4-0.3,0.6-0.7,0.6h-4.6
	c-0.5,0-0.8-0.2-0.8-0.6V38.6z"/>
<path class="st2" d="M444.3,78.7c-0.5,0-0.8-0.2-0.8-0.6V42.8c0-0.2-0.1-0.4-0.5-0.4h-8.4c-0.5,0-0.8-0.2-0.8-0.6v-3.3
	c0-0.4,0.3-0.6,0.8-0.6h23.7c0.5,0,0.8,0.2,0.8,0.6v3.3c0,0.4-0.3,0.6-0.8,0.6H450c-0.3,0-0.5,0.1-0.5,0.4v35.3
	c0,0.4-0.3,0.6-0.8,0.6H444.3z"/>
<path class="st1" d="M152.9,108.8c-0.1,0-0.3-0.1-0.3-0.3l0,0V95.6c0-0.2,0.1-0.3,0.3-0.3l0,0h1.8c0.2,0,0.3,0.1,0.3,0.3l0,0V97l0,0
	c0.7-1.3,2.1-2.1,3.6-2c1,0,2,0.3,2.8,1c0.1,0.1,0.2,0.2,0.1,0.4l-1,1.4c-0.1,0.1-0.2,0.2-0.4,0.1l0,0c-0.6-0.4-1.3-0.6-2.1-0.6
	c-2.1,0-2.9,1.6-2.9,3.9v7.4c0,0.2-0.1,0.3-0.3,0.3l0,0L152.9,108.8z"/>
<path class="st1" d="M185.1,108.8c-0.1,0-0.3-0.1-0.3-0.3l0,0v-1.2l0,0c-0.6,1-1.9,1.8-4,1.8c-2.6,0-4.5-1.3-4.5-4s2-4.2,5.3-4.2
	h3.1c0.1,0,0.2,0,0.2-0.2v-1c0-1.9-0.7-2.6-3.2-2.6c-1.2-0.1-2.3,0.3-3.3,1c-0.1,0.1-0.2,0.1-0.4,0l0,0l-0.8-1.3
	c-0.1-0.1-0.1-0.3,0.1-0.4c1.3-0.9,2.9-1.4,4.6-1.3c3.8,0,5.3,1.3,5.3,4.6v8.9c0,0.1-0.1,0.3-0.3,0.3l0,0L185.1,108.8z M184.8,104.4
	v-1.5c0-0.1-0.1-0.2-0.2-0.2h-2.7c-2.3,0-3.3,0.7-3.3,2.2s1,2.1,2.8,2.1C183.5,107.1,184.8,106.1,184.8,104.4L184.8,104.4z"/>
<path class="st1" d="M213.5,108.8c-0.1,0-0.3-0.1-0.3-0.3l0,0v-1.3l0,0c-0.8,1.3-2.3,2-3.8,1.9c-2.1,0.2-4.1-1.2-4.6-3.2
	c-0.6-2.5-0.6-5.1,0-7.6c0.6-2.1,2.5-3.4,4.6-3.2c1.5-0.1,3,0.6,3.8,1.9l0,0v-6.9c0-0.1,0.1-0.3,0.2-0.3l0,0h1.8
	c0.1,0,0.3,0.1,0.3,0.2l0,0v18.6c0,0.1-0.1,0.3-0.3,0.3l0,0L213.5,108.8z M212.9,104.8c0.3-0.9,0.4-1.9,0.3-2.8
	c0.1-1-0.1-1.9-0.3-2.8c-0.6-1.6-2.5-2.4-4.1-1.8c-0.8,0.3-1.5,1-1.8,1.8c-0.2,0.9-0.3,1.9-0.3,2.8s0.1,1.9,0.3,2.8
	c0.6,1.6,2.4,2.5,4.1,1.8C211.9,106.4,212.6,105.7,212.9,104.8z"/>
<path class="st1" d="M233.9,92.3c-0.2,0-0.3-0.1-0.3-0.3l0,0v-2c0-0.1,0.1-0.3,0.3-0.3l0,0h1.9c0.1,0,0.3,0.1,0.3,0.2l0,0v2
	c0,0.1-0.1,0.3-0.2,0.3l0,0h-2V92.3z M234,108.8c-0.1,0-0.3-0.1-0.3-0.3l0,0V95.6c0-0.1,0.1-0.3,0.2-0.3l0,0h1.8
	c0.1,0,0.3,0.1,0.3,0.3l0,0v12.9c0,0.1-0.1,0.3-0.3,0.3l0,0H234z"/>
<path class="st1" d="M253.8,98.7c0.7-2.3,2.9-3.8,5.3-3.6c1.8-0.1,3.6,0.8,4.6,2.3c0.1,0.1,0.1,0.3-0.1,0.4l-1.2,1
	c-0.1,0.1-0.2,0.1-0.4,0l0,0c-0.6-1-1.7-1.5-2.9-1.5c-1.4-0.1-2.6,0.8-3,2.1c-0.4,1.8-0.4,3.7,0,5.5c0.4,1.3,1.6,2.2,3,2.1
	c1.2,0,2.3-0.5,2.9-1.5c0.1-0.1,0.2-0.1,0.4,0l0,0l1.2,1c0.2,0.1,0.2,0.3,0.1,0.4c-1.1,1.5-2.8,2.3-4.6,2.3
	c-2.4,0.2-4.6-1.3-5.3-3.6C253.2,103.3,253.2,100.9,253.8,98.7L253.8,98.7z"/>
<path class="st1" d="M288.8,108.8c-0.1,0-0.3-0.1-0.3-0.3l0,0v-1.2l0,0c-0.6,1-2,1.8-4,1.8c-2.6,0-4.5-1.3-4.5-4s2-4.2,5.3-4.2h3.1
	c0.1,0,0.2,0,0.2-0.1l0,0v-1c0-1.9-0.7-2.6-3.2-2.6c-1.2-0.1-2.3,0.3-3.3,1c-0.1,0.1-0.3,0.1-0.4,0l-0.8-1.3c-0.1-0.1-0.1-0.3,0-0.4
	c1.3-0.9,3-1.4,4.6-1.3c3.8,0,5.3,1.3,5.3,4.6v8.9c0,0.2-0.1,0.3-0.3,0.3l0,0L288.8,108.8z M288.5,104.4v-1.5c0-0.1,0-0.2-0.1-0.2
	l0,0h-2.7c-2.3,0-3.4,0.7-3.4,2.2s1,2.1,2.8,2.1C287.2,107.1,288.5,106.1,288.5,104.4L288.5,104.4z"/>
<path class="st1" d="M311.9,109c-2.4,0-3.3-1.1-3.3-3.5V90c0-0.1,0.1-0.3,0.3-0.3l0,0h1.8c0.1,0,0.3,0.1,0.3,0.3l0,0v15.3
	c0,1.1,0.4,1.5,1.4,1.5h0.6c0.1,0,0.3,0.1,0.3,0.3l0,0v1.6c0,0.1-0.1,0.3-0.2,0.3l0,0L311.9,109z"/>
<path class="st1" d="M330.3,108.8c-0.1,0-0.3-0.1-0.3-0.3l0,0V90c0-0.1,0.1-0.3,0.3-0.3l0,0h1.8c0.1,0,0.3,0.1,0.3,0.2l0,0v6.9l0,0
	c0.8-1.3,2.3-2,3.8-1.9c2.1-0.2,4.1,1.2,4.6,3.2c0.6,2.5,0.6,5.1,0,7.6c-0.6,2.1-2.5,3.4-4.6,3.2c-1.5,0.1-3-0.6-3.8-1.9l0,0v1.3
	c0,0.2-0.1,0.3-0.3,0.3l0,0L330.3,108.8z M338.6,104.8c0.2-0.9,0.4-1.9,0.3-2.8c0-1-0.1-1.9-0.3-2.8c-0.6-1.6-2.5-2.4-4.1-1.8
	c-0.8,0.3-1.5,1-1.8,1.8c-0.3,0.9-0.4,1.9-0.3,2.8c-0.1,0.9,0.1,1.9,0.3,2.8c0.6,1.6,2.4,2.5,4.1,1.8
	C337.6,106.4,338.3,105.7,338.6,104.8z"/>
<path class="st1" d="M358.9,92.3c-0.2,0-0.3-0.1-0.3-0.3l0,0v-2c0-0.1,0.1-0.3,0.3-0.3l0,0h1.9c0.1,0,0.3,0.1,0.3,0.2l0,0v2
	c0,0.1-0.1,0.3-0.2,0.3l0,0h-2V92.3z M358.9,108.8c-0.1,0-0.3-0.1-0.3-0.3l0,0V95.6c0-0.1,0.1-0.3,0.2-0.3l0,0h1.8
	c0.1,0,0.3,0.1,0.3,0.3l0,0v12.9c0,0.1-0.1,0.3-0.3,0.3l0,0H358.9z"/>
<path class="st1" d="M383.1,109c-2.6,0-3.6-1.2-3.6-3.8v-7.7c0-0.1,0-0.2-0.1-0.2l0,0h-1.1c-0.2,0-0.3-0.1-0.3-0.3l0,0v-1.3
	c0-0.2,0.1-0.3,0.3-0.3l0,0h1.1c0.1,0,0.2,0,0.2-0.1l0,0v-3.8c0-0.1,0.1-0.3,0.2-0.3l0,0h1.8c0.1,0,0.3,0.1,0.3,0.2l0,0v3.8
	c0,0.1,0,0.2,0.1,0.2l0,0h2.1c0.1,0,0.3,0.1,0.3,0.3l0,0V97c0,0.1-0.1,0.3-0.2,0.3l0,0H382c-0.1,0-0.2,0-0.2,0.1l0,0v7.6
	c0,1.4,0.5,1.7,1.7,1.7h0.6c0.1,0,0.3,0.1,0.3,0.3l0,0v1.6c0,0.1-0.1,0.3-0.2,0.3l0,0L383.1,109L383.1,109z"/>
<path class="st1" d="M401.3,106.1c0-0.1,0.1-0.3,0.2-0.3l0,0h2.1c0.1,0,0.3,0.1,0.3,0.2l0,0v2.4c0,0.1-0.1,0.3-0.3,0.3l0,0h-2.1
	c-0.1,0-0.3-0.1-0.3-0.3l0,0L401.3,106.1L401.3,106.1z"/>
<path class="st1" d="M422,92.3c-0.1,0-0.3-0.1-0.3-0.3l0,0v-2c0-0.1,0.1-0.3,0.2-0.3l0,0h1.9c0.1,0,0.3,0.1,0.3,0.2l0,0v2
	c0,0.2-0.1,0.3-0.3,0.3l0,0H422V92.3z M422.1,108.8c-0.1,0-0.3-0.1-0.3-0.3l0,0V95.6c0-0.1,0.1-0.3,0.2-0.3l0,0h1.8
	c0.1,0,0.3,0.1,0.3,0.3l0,0v12.9c0,0.1-0.1,0.3-0.3,0.3l0,0H422.1z"/>
<path class="st1" d="M441.9,105.5c-0.6-2.2-0.6-4.6,0-6.8c1.2-2.9,4.5-4.4,7.4-3.2c1.5,0.6,2.6,1.8,3.2,3.2c0.6,2.2,0.6,4.6,0,6.8
	c-1.2,2.9-4.5,4.4-7.4,3.2C443.7,108.1,442.5,107,441.9,105.5z M450.3,104.8c0.3-0.9,0.4-1.8,0.3-2.8c0-0.9-0.1-1.8-0.3-2.7
	c-0.6-1.7-2.5-2.5-4.2-1.9c-0.9,0.3-1.6,1-1.9,1.9s-0.4,1.8-0.3,2.7c0,0.9,0.1,1.9,0.3,2.8c0.6,1.7,2.5,2.5,4.2,1.9
	C449.3,106.4,450,105.7,450.3,104.8z"/>
</svg>
