<?xml version="1.0" encoding="utf-8"?>
<!-- Generator: Adobe Illustrator 23.0.2, SVG Export Plug-In . SVG Version: 6.00 Build 0)  -->
<svg version="1.1" id="Livello_1" xmlns="http://www.w3.org/2000/svg" xmlns:xlink="http://www.w3.org/1999/xlink" x="0px" y="0px"
	 viewBox="0 0 284 280.7" style="enable-background:new 0 0 284 280.7;" xml:space="preserve">
<style type="text/css">
	.st0{fill:#72B2DF;}
	.st1{fill:#8D8F90;}
	.st2{fill:#FFFFFF;}
</style>
<title>RDB-negaLogo</title>
<path class="st0" d="M222.4,48.3c48.2,48.2,50.5,125.5,5.3,176.5c1.9-1.7,3.7-3.4,5.4-5.1C283.3,169.5,283.3,88,233,37.8
	S101.3-12.6,51.1,37.6c-1.8,1.8-3.5,3.6-5.1,5.4C96.9-2.2,174.3,0.1,222.4,48.3z"/>
<path class="st1" d="M18.8,122.9C36.4,57.1,102.3,16.5,169,30.4c-2.4-0.8-4.8-1.5-7.2-2.2C93.2,9.9,22.7,50.6,4.4,119.2
	s22.4,139.1,91,157.4c2.4,0.7,4.9,1.2,7.3,1.7C38,256.9,1.2,188.8,18.8,122.9z"/>
<path class="st2" d="M184.9,261.9C119,279.5,50.9,242.7,29.4,178c0.5,2.4,1.1,4.9,1.7,7.3c18.3,68.6,88.8,109.4,157.4,91
	s109.4-88.8,91-157.4c-0.6-2.4-1.4-4.8-2.2-7.2C291.3,178.4,250.7,244.3,184.9,261.9z"/>
</svg>
