<?xml version="1.0" encoding="utf-8"?>
<!-- Generator: Adobe Illustrator 23.0.2, SVG Export Plug-In . SVG Version: 6.00 Build 0)  -->
<svg version="1.1" id="Livello_1" xmlns="http://www.w3.org/2000/svg" xmlns:xlink="http://www.w3.org/1999/xlink" x="0px" y="0px"
	 viewBox="0 0 283.5 66.3" style="enable-background:new 0 0 283.5 66.3;" xml:space="preserve">
<style type="text/css">
	.st0{fill:#4B4F54;}
	.st1{fill:#8D8F90;}
</style>
<title>RDB-posiMarchio</title>
<path class="st0" d="M17.7,38.2c-0.4,0-0.6-0.1-0.8-0.4L11,22.1c-0.6,0-1.3,0-1.9,0H6.3c-0.3,0-0.4,0.1-0.4,0.3v15.2
	c0,0.3-0.3,0.5-0.7,0.5H0.9c-0.4,0-0.7-0.2-0.7-0.5V1.1c0-0.3,0.3-0.6,0.7-0.6h8.2c8.3,0,12.7,2.9,12.7,10.9c0,5-2.1,8.1-5.8,9.6
	l6.6,16.7c0.1,0.2,0.1,0.4-0.1,0.5c-0.1,0-0.1,0.1-0.2,0.1L17.7,38.2z M16.3,11.4c0-5.1-2.1-6.7-7.1-6.7h-3C6,4.7,5.8,4.8,5.8,5
	v12.7c0,0.2,0.1,0.3,0.4,0.3h3C14.1,18.1,16.3,16.5,16.3,11.4L16.3,11.4z"/>
<path class="st0" d="M41,1.1c0.1-0.3,0.4-0.6,0.8-0.6h4.1c0.4,0,0.7,0.2,0.8,0.6l9.9,36.6c0.1,0.3-0.2,0.5-0.6,0.5h-4.1
	c-0.5,0-0.7-0.2-0.8-0.5L49,29.4H38.5l-2.1,8.3c0,0.3-0.4,0.6-0.7,0.5h-4.1c-0.4,0-0.7-0.2-0.6-0.5L41,1.1z M48,25.5L44,9.1h-0.2
	l-4.3,16.4H48z"/>
<path class="st0" d="M66.5,1.1c0-0.3,0.3-0.6,0.7-0.6H77c6,0,9.4,2,10.9,5.9c0.8,2.1,1.1,4.5,1.1,13s-0.3,10.9-1.1,13
	c-1.5,3.9-4.9,5.9-10.9,5.9h-9.8c-0.4,0-0.7-0.2-0.7-0.5L66.5,1.1z M72.5,34.1h3.9c3.2,0,5-1,6-3.2c0.6-1.5,0.9-3.6,0.9-11.5
	S83,9.5,82.4,7.9c-1-2.2-2.8-3.2-6-3.2h-3.9c-0.3,0-0.4,0.1-0.4,0.3v28.7C72.1,33.9,72.3,34,72.5,34.1L72.5,34.1z"/>
<path class="st0" d="M101,1.1c0-0.3,0.3-0.6,0.7-0.6h4.2c0.4,0,0.7,0.2,0.7,0.6v36.6c0,0.3-0.3,0.5-0.7,0.5h-4.2
	c-0.4,0-0.7-0.2-0.7-0.5V1.1z"/>
<path class="st0" d="M118.7,19.3c0-10.7,0.2-12.2,0.8-13.8C120.9,2,124.3,0,129.6,0c6.2,0,9.9,2.7,10.5,8.4c0.1,0.4-0.1,0.6-0.6,0.7
	l-3.9,0.6c-0.4,0-0.8-0.1-0.8-0.4c-0.3-3.4-1.9-5-5.2-5c-2.5,0-4,0.8-4.7,2.6c-0.4,1-0.6,2.1-0.6,12.5s0.2,11.5,0.6,12.5
	c0.7,1.8,2.2,2.6,4.7,2.6c3.2,0,4.9-1.7,5.2-5c0-0.3,0.4-0.5,0.8-0.5l3.9,0.6c0.4,0.1,0.6,0.3,0.6,0.7c-0.6,5.8-4.4,8.4-10.5,8.4
	c-5.3,0-8.6-2-10.1-5.5C118.9,31.6,118.7,30,118.7,19.3z"/>
<path class="st0" d="M157.2,1.1c0.1-0.3,0.4-0.6,0.8-0.6h4.1c0.4,0,0.7,0.2,0.8,0.6l9.9,36.6c0.1,0.3-0.2,0.5-0.6,0.5H168
	c-0.5,0-0.7-0.2-0.8-0.5l-2-8.3h-10.5l-2.1,8.3c0,0.3-0.4,0.6-0.7,0.5h-4.1c-0.4,0-0.7-0.2-0.6-0.5L157.2,1.1z M164.2,25.5l-4-16.4
	H160l-4.3,16.4H164.2z"/>
<path class="st0" d="M182.6,1.1c0-0.3,0.3-0.6,0.7-0.6h4.2c0.4,0,0.7,0.2,0.7,0.6v32.6c0,0.2,0.1,0.3,0.4,0.3H201
	c0.4,0,0.7,0.2,0.7,0.6v3c0,0.3-0.3,0.5-0.7,0.5h-17.7c-0.4,0-0.7-0.2-0.7-0.5V1.1z"/>
<path class="st1" d="M211.9,1.1c0-0.3,0.3-0.6,0.7-0.6h8.9c8.2,0,11.7,2.8,11.7,9.7c0,4.7-2,7-5.5,8.2v0.1c3.5,0.9,6,3.4,6,8.8
	c0,8.1-4.1,10.8-12.9,10.8h-8.2c-0.4,0-0.7-0.2-0.7-0.5L211.9,1.1z M221.3,16.8c4.4,0,6.3-1.3,6.3-6s-1.7-6.1-6.4-6.1H218
	c-0.3,0-0.4,0.1-0.4,0.3v11.5c0,0.2,0.1,0.3,0.4,0.3L221.3,16.8z M218,34h3.1c5.1,0,7-1.5,7-6.7c0-5-2-6.6-6.8-6.6H218
	c-0.3,0-0.4,0.1-0.4,0.3v12.6C217.5,33.9,217.7,34,218,34z"/>
<path class="st1" d="M244.8,1.1c0-0.3,0.3-0.6,0.7-0.6h4.2c0.4,0,0.7,0.2,0.7,0.6v36.6c0,0.3-0.3,0.5-0.7,0.5h-4.2
	c-0.4,0-0.7-0.2-0.7-0.5V1.1z"/>
<path class="st1" d="M269.8,38.2c-0.4,0-0.7-0.2-0.7-0.5V5c0-0.2-0.1-0.3-0.4-0.3h-7.8c-0.4,0-0.7-0.2-0.7-0.6v-3
	c0-0.3,0.3-0.6,0.7-0.6h22c0.4,0,0.7,0.2,0.7,0.6v3c0,0.3-0.3,0.6-0.7,0.6h-7.8c-0.3,0-0.4,0.1-0.4,0.3v32.6c0,0.3-0.3,0.5-0.7,0.5
	H269.8z"/>
<path class="st0" d="M0.3,66C0.1,66,0,65.9,0,65.8c0,0,0,0,0,0V53.8c0-0.1,0.1-0.3,0.2-0.3c0,0,0,0,0,0h1.7c0.1,0,0.3,0.1,0.3,0.2
	c0,0,0,0,0,0v1.3l0,0c0.7-1.2,1.9-1.9,3.3-1.8c0.9,0,1.8,0.3,2.6,0.9c0.1,0.1,0.1,0.2,0,0.4l-0.9,1.3c-0.1,0.1-0.2,0.1-0.3,0
	c0,0,0,0,0,0c-0.6-0.4-1.2-0.6-1.9-0.6c-1.9,0-2.7,1.5-2.7,3.6v6.8C2.2,65.9,2.1,66,2,66c0,0,0,0,0,0L0.3,66z"/>
<path class="st0" d="M30.1,66c-0.1,0-0.2-0.1-0.3-0.2c0,0,0,0,0,0v-1.1l0,0c-0.9,1.2-2.3,1.8-3.7,1.6c-2.4,0-4.2-1.2-4.2-3.8
	s1.8-3.9,4.9-3.9h2.8c0.1,0,0.1,0,0.2-0.1c0,0,0,0,0,0v-0.9c0-1.7-0.7-2.4-3-2.4c-1.1,0-2.1,0.3-3,0.9c-0.1,0.1-0.2,0.1-0.3,0
	c0,0,0,0,0,0l-0.7-1.2c-0.1-0.1-0.1-0.3,0-0.4c1.2-0.9,2.7-1.3,4.2-1.2c3.5,0,4.9,1.2,4.9,4.2v8.2c0,0.1-0.1,0.2-0.2,0.3
	c0,0,0,0,0,0L30.1,66z M29.8,62v-1.4c0-0.1,0-0.1-0.1-0.2c0,0,0,0,0,0h-2.5c-2.2,0-3.1,0.6-3.1,2s0.9,2,2.6,2
	C28.6,64.4,29.8,63.5,29.8,62L29.8,62z"/>
<path class="st0" d="M56.3,66c-0.1,0-0.2-0.1-0.3-0.2c0,0,0,0,0,0v-1.2l0,0c-0.8,1.2-2.1,1.9-3.5,1.8c-2,0.2-3.8-1.1-4.3-3
	c-0.6-2.3-0.6-4.7,0-7c0.5-1.9,2.3-3.2,4.3-3c1.4-0.1,2.8,0.5,3.5,1.7l0,0v-6.4c0-0.1,0.1-0.2,0.2-0.3c0,0,0,0,0,0H58
	c0.1,0,0.3,0.1,0.3,0.2c0,0,0,0,0,0v17.2c0,0.1-0.1,0.3-0.2,0.3c0,0,0,0,0,0L56.3,66z M55.8,62.4c0.2-0.8,0.3-1.7,0.3-2.6
	c0-0.9-0.1-1.8-0.3-2.6c-0.6-1.5-2.3-2.3-3.8-1.7c-0.8,0.3-1.4,0.9-1.7,1.7C50.1,58,50,58.9,50,59.8c0,0.9,0.1,1.8,0.3,2.6
	c0.4,1.2,1.5,2,2.7,1.9C54.3,64.4,55.4,63.6,55.8,62.4z"/>
<path class="st0" d="M75.2,50.8c-0.1,0-0.3-0.1-0.3-0.2c0,0,0,0,0,0v-1.9c0-0.1,0.1-0.2,0.2-0.3c0,0,0,0,0,0H77
	c0.1,0,0.2,0.1,0.3,0.2c0,0,0,0,0,0v1.9c0,0.1-0.1,0.3-0.2,0.3c0,0,0,0,0,0H75.2z M75.2,66c-0.1,0-0.3-0.1-0.3-0.2c0,0,0,0,0,0V53.8
	c0-0.1,0.1-0.3,0.2-0.3c0,0,0,0,0,0h1.7c0.1,0,0.3,0.1,0.3,0.2c0,0,0,0,0,0v11.9c0,0.1-0.1,0.3-0.2,0.3c0,0,0,0,0,0L75.2,66z"/>
<path class="st0" d="M93.6,56.6c0.7-2.1,2.7-3.5,4.9-3.4c1.7-0.1,3.3,0.7,4.3,2.1c0.1,0.1,0.1,0.2-0.1,0.4l-1.1,0.9
	c-0.1,0.1-0.2,0.1-0.3,0.1c0,0,0,0-0.1-0.1c-0.6-0.9-1.6-1.4-2.7-1.4c-1.3-0.1-2.4,0.7-2.8,2c-0.4,1.7-0.4,3.4,0,5.1
	c0.4,1.2,1.5,2,2.8,2c1.1,0,2.1-0.5,2.7-1.4c0.1-0.1,0.2-0.1,0.3,0c0,0,0,0,0,0l1.1,0.9c0.1,0.1,0.2,0.2,0.1,0.3c0,0,0,0,0,0
	c-1,1.4-2.6,2.2-4.3,2.1c-2.2,0.1-4.2-1.2-4.9-3.4C93.1,60.9,93.1,58.7,93.6,56.6L93.6,56.6z"/>
<path class="st0" d="M126,66c-0.1,0-0.3-0.1-0.3-0.2c0,0,0,0,0,0v-1.1l0,0c-0.9,1.2-2.3,1.8-3.7,1.6c-2.4,0-4.2-1.2-4.2-3.8
	s1.8-3.9,4.9-3.9h2.8c0.1,0,0.1,0,0.1-0.2v-0.9c0-1.7-0.7-2.4-3-2.4c-1.1,0-2.1,0.3-3,0.9c-0.1,0.1-0.3,0.1-0.4,0l-0.7-1.2
	c-0.1-0.1-0.1-0.3,0.1-0.4c1.2-0.9,2.7-1.3,4.2-1.2c3.5,0,4.9,1.2,4.9,4.2v8.2c0,0.1-0.1,0.3-0.2,0.3c0,0,0,0,0,0L126,66z M125.6,62
	v-1.4c0-0.1,0-0.2-0.1-0.2H123c-2.2,0-3.1,0.6-3.1,2s0.9,2,2.6,2C124.4,64.4,125.6,63.5,125.6,62L125.6,62z"/>
<path class="st0" d="M147.4,66.1c-2.2,0-3-1-3-3.3V48.6c0-0.1,0.1-0.2,0.2-0.3c0,0,0,0,0,0h1.7c0.1,0,0.2,0.1,0.3,0.2c0,0,0,0,0,0
	v14.1c0,1,0.4,1.4,1.2,1.4h0.5c0.1,0,0.3,0.1,0.3,0.2c0,0,0,0,0,0v1.5c0,0.1-0.1,0.3-0.2,0.3c0,0,0,0,0,0L147.4,66.1z"/>
<path class="st0" d="M164.4,66c-0.1,0-0.2-0.1-0.3-0.2c0,0,0,0,0,0V48.6c0-0.1,0.1-0.2,0.2-0.3c0,0,0,0,0,0h1.7
	c0.1,0,0.2,0.1,0.3,0.2c0,0,0,0,0,0V55l0,0c0.8-1.2,2.1-1.9,3.5-1.7c2-0.1,3.8,1.1,4.3,3c0.6,2.3,0.6,4.7,0,7
	c-0.5,1.9-2.3,3.1-4.3,3c-1.4,0.1-2.8-0.5-3.5-1.8l0,0v1.2c0,0.1-0.1,0.2-0.2,0.3c0,0,0,0,0,0L164.4,66z M172.1,62.4
	c0.2-0.8,0.3-1.7,0.3-2.6c0-0.9-0.1-1.8-0.3-2.6c-0.6-1.5-2.3-2.3-3.8-1.7c-0.8,0.3-1.4,0.9-1.7,1.7c-0.2,0.8-0.3,1.7-0.3,2.6
	c0,0.9,0,1.8,0.3,2.6c0.6,1.5,2.3,2.3,3.8,1.7C171.1,63.8,171.8,63.2,172.1,62.4z"/>
<path class="st0" d="M190.8,50.8c-0.1,0-0.3-0.1-0.3-0.2c0,0,0,0,0,0v-1.9c0-0.1,0.1-0.2,0.2-0.3c0,0,0,0,0,0h1.8
	c0.1,0,0.2,0.1,0.3,0.2c0,0,0,0,0,0v1.9c0,0.1-0.1,0.3-0.2,0.3c0,0,0,0,0,0H190.8z M190.8,66c-0.1,0-0.3-0.1-0.3-0.2c0,0,0,0,0,0
	V53.8c0-0.1,0.1-0.3,0.2-0.3c0,0,0,0,0,0h1.7c0.1,0,0.3,0.1,0.3,0.2c0,0,0,0,0,0v11.9c0,0.1-0.1,0.3-0.2,0.3c0,0,0,0,0,0L190.8,66z"
	/>
<path class="st0" d="M213.2,66.1c-2.4,0-3.4-1.1-3.4-3.5v-7.1c0-0.1,0-0.1-0.1-0.1c0,0,0,0,0,0h-1c-0.1,0-0.3-0.1-0.3-0.2
	c0,0,0,0,0,0v-1.2c0-0.1,0.1-0.2,0.2-0.3c0,0,0,0,0,0h1c0.1,0,0.1,0,0.1-0.2v-3.5c0-0.1,0.1-0.3,0.2-0.3c0,0,0,0,0,0h1.7
	c0.1,0,0.3,0.1,0.3,0.2c0,0,0,0,0,0v3.5c0,0.1,0,0.1,0.1,0.2c0,0,0,0,0,0h2c0.1,0,0.2,0.1,0.3,0.2c0,0,0,0,0,0v1.2
	c0,0.1-0.1,0.3-0.2,0.3c0,0,0,0,0,0h-2c-0.1,0-0.2,0-0.2,0.1v7c0,1.2,0.5,1.6,1.6,1.6h0.5c0.1,0,0.3,0.1,0.3,0.2c0,0,0,0,0,0v1.6
	c0,0.1-0.1,0.2-0.2,0.3c0,0,0,0,0,0L213.2,66.1z"/>
<path class="st0" d="M230.1,63.5c0-0.1,0.1-0.3,0.2-0.3c0,0,0,0,0,0h2c0.1,0,0.3,0.1,0.3,0.2c0,0,0,0,0,0v2.2c0,0.1-0.1,0.3-0.2,0.3
	c0,0,0,0,0,0h-2c-0.1,0-0.2-0.1-0.3-0.2c0,0,0,0,0,0V63.5z"/>
<path class="st0" d="M249.2,50.8c-0.1,0-0.3-0.1-0.3-0.2c0,0,0,0,0,0v-1.9c0-0.1,0.1-0.2,0.2-0.3c0,0,0,0,0,0h1.8
	c0.1,0,0.3,0.1,0.3,0.2c0,0,0,0,0,0v1.9c0,0.1-0.1,0.3-0.2,0.3c0,0,0,0,0,0H249.2z M249.2,66c-0.1,0-0.2-0.1-0.3-0.2c0,0,0,0,0,0
	V53.8c0-0.1,0.1-0.2,0.2-0.3c0,0,0,0,0,0h1.7c0.1,0,0.3,0.1,0.3,0.2c0,0,0,0,0,0v11.9c0,0.1-0.1,0.3-0.2,0.3c0,0,0,0,0,0L249.2,66z"
	/>
<path class="st0" d="M267.6,63c-0.5-2.1-0.5-4.2,0-6.3c1.1-2.7,4.1-4.1,6.8-3c1.4,0.5,2.5,1.6,3,3c0.5,2.1,0.5,4.2,0,6.3
	c-1.1,2.7-4.1,4.1-6.8,3C269.2,65.4,268.1,64.3,267.6,63z M275.3,62.3c0.2-0.8,0.3-1.7,0.3-2.5c0-0.9-0.1-1.7-0.3-2.5
	c-0.6-1.6-2.3-2.3-3.9-1.8c-0.8,0.3-1.5,0.9-1.8,1.8c-0.2,0.8-0.3,1.7-0.3,2.5c0,0.9,0.1,1.7,0.3,2.5c0.6,1.6,2.3,2.3,3.9,1.8
	C274.4,63.8,275,63.1,275.3,62.3z"/>
</svg>
