<?xml version="1.0" encoding="utf-8"?>
<!-- Generator: Adobe Illustrator 23.0.2, SVG Export Plug-In . SVG Version: 6.00 Build 0)  -->
<svg version="1.1" id="Livello_1" xmlns="http://www.w3.org/2000/svg" xmlns:xlink="http://www.w3.org/1999/xlink" x="0px" y="0px"
	 viewBox="0 0 279.2 312.1" style="enable-background:new 0 0 279.2 312.1;" xml:space="preserve">
<style type="text/css">
	.st0{fill:#72B2DF;}
	.st1{fill:#8D8F90;}
	.st2{fill:#FFFFFF;}
</style>
<title>RDB-negaVerticale</title>
<path class="st0" d="M202.6,37.9c37.8,37.7,39.6,98.4,4.1,138.3c1.5-1.3,2.9-2.6,4.3-4c39.4-39.4,39.4-103.3,0-142.7
	s-103.3-39.4-142.7,0l0,0c-1.4,1.4-2.7,2.8-4,4.3C104.2-1.7,164.9,0.1,202.6,37.9z"/>
<path class="st1" d="M43,96.4C56.8,44.8,108.5,13,160.7,23.8c-1.8-0.6-3.7-1.2-5.6-1.7C101.4,7.8,46.1,39.7,31.7,93.5
	s17.6,109,71.4,123.4c1.9,0.5,3.8,1,5.7,1.4C58.1,201.4,29.3,148,43,96.4z"/>
<path class="st2" d="M173.2,205.3c-51.6,13.7-105-15.1-121.8-65.8c0.4,1.9,0.8,3.8,1.4,5.7c13.7,54,68.5,86.6,122.4,73
	c54-13.7,86.6-68.5,73-122.4c-0.2-0.8-0.4-1.7-0.7-2.5c-0.5-1.9-1.1-3.8-1.7-5.6C256.6,139.9,224.8,191.5,173.2,205.3z"/>
<path class="st2" d="M17.4,284.4c-0.4,0-0.6-0.1-0.8-0.4l-5.8-15.5c-0.6,0-1.3,0-1.9,0H6.2c-0.3,0-0.4,0.1-0.4,0.3v15
	c0,0.3-0.3,0.5-0.7,0.5H1c-0.4,0-0.7-0.2-0.7-0.5v-36c0-0.3,0.3-0.5,0.7-0.5h8.1c8.2,0,12.5,2.8,12.5,10.7c0,5-2,8-5.7,9.4l6.5,16.4
	c0.1,0.2,0.1,0.4-0.1,0.5c-0.1,0-0.2,0.1-0.2,0.1L17.4,284.4z M16,258c0-5-2.1-6.6-7-6.6H6.2c-0.3,0-0.4,0.1-0.4,0.3v12.5
	c0,0.2,0.1,0.3,0.4,0.3h2.9C13.9,264.6,16,263.1,16,258z"/>
<path class="st2" d="M40.4,247.8c0.1-0.3,0.4-0.6,0.8-0.5h4.1c0.4,0,0.7,0.2,0.8,0.5l9.8,36c0.1,0.3-0.2,0.5-0.6,0.5H51
	c-0.5,0-0.7-0.2-0.8-0.5l-2-8.1H38l-2,8.1c0,0.3-0.3,0.6-0.7,0.5h-4.1c-0.4,0-0.7-0.2-0.6-0.5L40.4,247.8z M47.3,271.9l-4-16.2h-0.2
	l-4.2,16.2H47.3z"/>
<path class="st2" d="M65.5,247.8c0-0.3,0.3-0.5,0.7-0.5h9.6c5.9,0,9.2,2,10.7,5.8c0.8,2,1.1,4.5,1.1,12.8s-0.3,10.7-1.1,12.8
	c-1.5,3.8-4.8,5.8-10.7,5.8h-9.6c-0.4,0-0.7-0.2-0.7-0.5V247.8z M71.4,280.3h3.8c3.1,0,4.9-1,5.9-3.2c0.6-1.5,0.9-3.5,0.9-11.3
	s-0.3-9.8-0.9-11.3c-1-2.2-2.7-3.2-5.9-3.2h-3.8c-0.3,0-0.4,0.1-0.4,0.3V280C71,280.2,71.1,280.3,71.4,280.3L71.4,280.3z"/>
<path class="st2" d="M99.4,247.8c0-0.3,0.3-0.5,0.7-0.5h4.2c0.4,0,0.7,0.2,0.7,0.5v36c0,0.3-0.3,0.5-0.7,0.5h-4.2
	c-0.4,0-0.7-0.2-0.7-0.5V247.8z"/>
<path class="st2" d="M116.8,265.8c0-10.5,0.2-12.1,0.8-13.6c1.4-3.5,4.7-5.5,10-5.5c6.1,0,9.7,2.6,10.4,8.3c0.1,0.4-0.1,0.6-0.5,0.7
	l-3.9,0.6c-0.4,0.1-0.8-0.1-0.8-0.4c-0.3-3.3-1.9-5-5.1-5c-2.5,0-4,0.8-4.6,2.6c-0.4,1-0.6,2.1-0.6,12.3s0.2,11.3,0.6,12.3
	c0.7,1.7,2.2,2.6,4.6,2.6c3.2,0,4.8-1.6,5.1-5c0-0.3,0.3-0.5,0.8-0.4l3.9,0.6c0.4,0,0.6,0.3,0.5,0.7c-0.6,5.7-4.3,8.3-10.4,8.3
	c-5.2,0-8.5-2-10-5.5C117,277.9,116.8,276.4,116.8,265.8z"/>
<path class="st2" d="M154.7,247.8c0.1-0.3,0.4-0.6,0.8-0.5h4.1c0.4,0,0.7,0.2,0.8,0.5l9.7,36c0.1,0.3-0.2,0.5-0.6,0.5h-4.1
	c-0.5,0-0.7-0.2-0.8-0.5l-2-8.1h-10.3l-2,8.1c0,0.3-0.4,0.6-0.7,0.5h-4.1c-0.4,0-0.7-0.2-0.6-0.5L154.7,247.8z M161.6,271.9l-4-16.2
	h-0.2l-4.2,16.2H161.6z"/>
<path class="st2" d="M179.8,247.8c0-0.3,0.3-0.5,0.7-0.5h4.2c0.4,0,0.7,0.2,0.7,0.5V280c0,0.2,0.1,0.3,0.4,0.3H198
	c0.4,0,0.7,0.2,0.7,0.5v3c0,0.3-0.3,0.5-0.7,0.5h-17.4c-0.4,0-0.7-0.2-0.7-0.5V247.8z"/>
<path class="st1" d="M208.7,247.8c0-0.3,0.3-0.5,0.7-0.5h8.8c8,0,11.5,2.8,11.5,9.5c0,4.6-2,6.9-5.4,8.1v0.2
	c3.5,0.9,5.9,3.4,5.9,8.7c0,8-4,10.6-12.7,10.6h-8.1c-0.4,0-0.7-0.2-0.7-0.5V247.8z M217.9,263.3c4.4,0,6.2-1.3,6.2-6s-1.6-6-6.3-6
	h-3.1c-0.3,0-0.4,0.1-0.4,0.3V263c0,0.2,0.1,0.3,0.4,0.3L217.9,263.3z M214.6,280.3h3.1c5,0,6.9-1.5,6.9-6.6c0-5-2-6.5-6.7-6.5h-3.3
	c-0.3,0-0.4,0.1-0.4,0.3V280C214.2,280.2,214.3,280.3,214.6,280.3L214.6,280.3z"/>
<path class="st1" d="M241.1,247.8c0-0.3,0.3-0.5,0.7-0.5h4.2c0.4,0,0.7,0.2,0.7,0.5v36c0,0.3-0.3,0.5-0.7,0.5h-4.2
	c-0.4,0-0.7-0.2-0.7-0.5L241.1,247.8z"/>
<path class="st1" d="M265.6,284.4c-0.4,0-0.7-0.2-0.7-0.5v-32.1c0-0.2-0.1-0.3-0.4-0.3h-7.6c-0.4,0-0.7-0.2-0.7-0.5v-3
	c0-0.3,0.3-0.5,0.7-0.5h21.6c0.4,0,0.7,0.2,0.7,0.5v3c0,0.3-0.3,0.5-0.7,0.5h-7.6c-0.3,0-0.4,0.1-0.4,0.3v32.1
	c0,0.3-0.3,0.5-0.7,0.5H265.6z"/>
<path class="st2" d="M0.3,311.8c-0.1,0-0.3-0.1-0.3-0.2c0,0,0,0,0,0v-11.8c0-0.1,0.1-0.2,0.2-0.3c0,0,0,0,0,0H2
	c0.1,0,0.2,0.1,0.2,0.2c0,0,0,0,0,0v1.3l0,0c0.6-1.2,1.9-1.9,3.2-1.8c0.9,0,1.8,0.3,2.5,0.9c0.1,0.1,0.2,0.2,0,0.4L7,301.8
	c-0.1,0.1-0.2,0.1-0.3,0.1c0,0,0,0,0,0c-0.6-0.4-1.2-0.6-1.9-0.6c-1.9,0-2.6,1.5-2.6,3.6v6.7c0,0.1-0.1,0.2-0.2,0.3c0,0,0,0,0,0H0.3
	z"/>
<path class="st2" d="M29.6,311.8c-0.1,0-0.2-0.1-0.3-0.2c0,0,0,0,0,0v-1.1l0,0c-0.8,1.1-2.2,1.8-3.6,1.6c-2.3,0-4.1-1.2-4.1-3.7
	s1.8-3.8,4.8-3.8h2.8c0.1,0,0.2,0,0.2-0.2v-0.9c0-1.7-0.7-2.4-3-2.4c-1.1-0.1-2.1,0.3-3,0.9c-0.1,0.1-0.2,0.1-0.3,0c0,0,0,0,0,0
	l-0.7-1.2c-0.1-0.1-0.1-0.3,0.1-0.4c1.2-0.8,2.7-1.3,4.2-1.2c3.5,0,4.8,1.2,4.8,4.2v8.1c0,0.1-0.1,0.2-0.2,0.3c0,0,0,0,0,0
	L29.6,311.8z M29.3,307.8v-1.4c0-0.1-0.1-0.2-0.2-0.2h-2.5c-2.1,0-3,0.6-3,2s0.9,1.9,2.6,1.9C28.1,310.2,29.3,309.3,29.3,307.8
	L29.3,307.8z"/>
<path class="st2" d="M55.5,311.8c-0.1,0-0.2-0.1-0.3-0.2c0,0,0,0,0,0v-1.2l0,0c-0.7,1.2-2.1,1.8-3.5,1.7c-1.9,0.2-3.7-1.1-4.2-3
	c-0.6-2.3-0.6-4.7,0-6.9c0.5-1.9,2.3-3.1,4.2-2.9c1.4-0.1,2.7,0.5,3.5,1.7l0,0v-6.3c0-0.1,0.1-0.2,0.2-0.2c0,0,0,0,0,0h1.6
	c0.1,0,0.2,0.1,0.3,0.2c0,0,0,0,0,0v16.9c0,0.1-0.1,0.3-0.2,0.3c0,0,0,0,0,0L55.5,311.8z M54.9,308.2c0.4-1.7,0.4-3.4,0-5.1
	c-0.6-1.5-2.3-2.2-3.8-1.6c-0.8,0.3-1.3,0.9-1.6,1.6c-0.2,0.8-0.3,1.7-0.3,2.6c0,0.9,0.1,1.7,0.3,2.6c0.6,1.5,2.2,2.3,3.7,1.7
	C54,309.6,54.6,309,54.9,308.2z"/>
<path class="st2" d="M74.1,296.8c-0.1,0-0.2-0.1-0.3-0.2c0,0,0,0,0,0v-1.9c0-0.1,0.1-0.2,0.2-0.3c0,0,0,0,0,0h1.7
	c0.1,0,0.2,0.1,0.3,0.2c0,0,0,0,0,0v1.9c0,0.1-0.1,0.2-0.2,0.3c0,0,0,0,0,0H74.1z M74.1,311.8c-0.1,0-0.2-0.1-0.3-0.2c0,0,0,0,0,0
	v-11.7c0-0.1,0.1-0.2,0.2-0.2c0,0,0,0,0,0h1.6c0.1,0,0.2,0.1,0.3,0.2c0,0,0,0,0,0v11.8c0,0.1-0.1,0.3-0.2,0.3c0,0,0,0,0,0
	L74.1,311.8z"/>
<path class="st2" d="M92.2,302.6c0.7-2.1,2.7-3.4,4.8-3.3c1.7-0.1,3.2,0.7,4.2,2.1c0.1,0.1,0.1,0.2-0.1,0.4l-1.1,0.9
	c-0.1,0.1-0.2,0.1-0.3,0c0,0,0,0,0,0c-0.6-0.9-1.6-1.4-2.6-1.3c-1.2-0.1-2.4,0.7-2.7,1.9c-0.4,1.6-0.4,3.4,0,5
	c0.3,1.2,1.4,2.1,2.7,2c1.1,0.1,2.1-0.5,2.6-1.3c0.1-0.1,0.2-0.1,0.3,0c0,0,0,0,0,0l1.1,0.9c0.2,0.1,0.2,0.2,0.1,0.3
	c-1,1.3-2.5,2.1-4.2,2.1c-2.2,0.1-4.2-1.2-4.8-3.3C91.6,306.8,91.6,304.6,92.2,302.6L92.2,302.6z"/>
<path class="st2" d="M124,311.8c-0.1,0-0.2-0.1-0.3-0.2c0,0,0,0,0,0v-1.1l0,0c-0.8,1.1-2.2,1.8-3.6,1.6c-2.3,0-4.1-1.2-4.1-3.7
	s1.8-3.8,4.8-3.8h2.8c0.1,0,0.1,0,0.2-0.1c0,0,0,0,0,0v-0.9c0-1.7-0.7-2.4-3-2.4c-1.1-0.1-2.1,0.3-3,0.9c-0.1,0.1-0.2,0.1-0.3,0
	c0,0,0,0,0,0l-0.7-1.2c-0.1-0.1-0.1-0.3,0-0.4c1.2-0.8,2.7-1.3,4.2-1.2c3.5,0,4.8,1.2,4.8,4.2v8.1c0,0.1-0.1,0.3-0.2,0.3
	c0,0,0,0,0,0L124,311.8z M123.7,307.8v-1.4c0-0.1-0.1-0.1-0.1-0.2c0,0,0,0,0,0h-2.5c-2.1,0-3,0.6-3,2s0.9,1.9,2.6,1.9
	C122.5,310.2,123.7,309.3,123.7,307.8L123.7,307.8z"/>
<path class="st2" d="M145.1,311.9c-2.1,0-3-1-3-3.2v-14.1c0-0.1,0.1-0.2,0.2-0.2c0,0,0,0,0,0h1.6c0.1,0,0.2,0.1,0.3,0.2c0,0,0,0,0,0
	v13.9c0,1,0.4,1.4,1.2,1.4h0.4c0.1,0,0.2,0.1,0.3,0.2c0,0,0,0,0,0v1.5c0,0.1-0.1,0.3-0.2,0.3c0,0,0,0,0,0H145.1z"/>
<path class="st2" d="M161.8,311.8c-0.1,0-0.3-0.1-0.3-0.2c0,0,0,0,0,0v-16.9c0-0.1,0.1-0.2,0.2-0.3c0,0,0,0,0,0h1.6
	c0.1,0,0.2,0.1,0.3,0.2c0,0,0,0,0,0v6.3l0,0c0.8-1.2,2.1-1.8,3.5-1.7c1.9-0.2,3.7,1.1,4.2,2.9c0.6,2.3,0.6,4.7,0,6.9
	c-0.5,1.9-2.3,3.1-4.2,3c-1.4,0.1-2.7-0.5-3.5-1.7l0,0v1.2c0,0.1-0.1,0.3-0.2,0.3c0,0,0,0,0,0L161.8,311.8z M169.4,308.2
	c0.2-0.8,0.3-1.7,0.3-2.6c0-0.9-0.1-1.7-0.3-2.6c-0.6-1.5-2.3-2.2-3.8-1.7c-0.8,0.3-1.4,0.9-1.7,1.7c-0.2,0.8-0.3,1.7-0.3,2.6
	c0,0.9,0,1.7,0.3,2.6c0.6,1.5,2.2,2.2,3.7,1.7C168.5,309.6,169.1,309,169.4,308.2z"/>
<path class="st2" d="M187.9,296.8c-0.1,0-0.2-0.1-0.2-0.2c0,0,0,0,0,0v-1.9c0-0.1,0.1-0.2,0.2-0.2c0,0,0,0,0,0h1.7
	c0.1,0,0.2,0.1,0.3,0.2c0,0,0,0,0,0v1.9c0,0.1-0.1,0.2-0.2,0.3c0,0,0,0,0,0H187.9z M187.9,311.8c-0.1,0-0.2-0.1-0.3-0.2c0,0,0,0,0,0
	v-11.7c0-0.1,0.1-0.2,0.2-0.2c0,0,0,0,0,0h1.6c0.1,0,0.2,0.1,0.3,0.2c0,0,0,0,0,0v11.8c0,0.1-0.1,0.3-0.2,0.3c0,0,0,0,0,0
	L187.9,311.8z"/>
<path class="st2" d="M209.9,311.9c-2.4,0-3.3-1.1-3.3-3.5v-7c0-0.1,0-0.1-0.1-0.2c0,0,0,0,0,0h-1c-0.1,0-0.2-0.1-0.3-0.2
	c0,0,0,0,0,0v-1.2c0-0.1,0.1-0.2,0.2-0.2c0,0,0,0,0,0h1c0.1,0,0.1,0,0.1-0.2v-3.5c0-0.1,0.1-0.3,0.2-0.3c0,0,0,0,0,0h1.6
	c0.1,0,0.2,0.1,0.3,0.2c0,0,0,0,0,0v3.5c0,0.1,0,0.1,0.1,0.2c0,0,0,0,0,0h1.9c0.1,0,0.2,0.1,0.3,0.2c0,0,0,0,0,0v1.2
	c0,0.1-0.1,0.2-0.2,0.3c0,0,0,0,0,0h-1.9c-0.1,0-0.1,0-0.2,0.1c0,0,0,0,0,0v6.9c0,1.2,0.5,1.6,1.6,1.6h0.5c0.1,0,0.2,0.1,0.3,0.2
	c0,0,0,0,0,0v1.5c0,0.1-0.1,0.3-0.2,0.3c0,0,0,0,0,0H209.9z"/>
<path class="st2" d="M226.5,309.3c0-0.1,0.1-0.2,0.2-0.3c0,0,0,0,0,0h2c0.1,0,0.3,0.1,0.3,0.2c0,0,0,0,0,0v2.2
	c0,0.1-0.1,0.3-0.2,0.3c0,0,0,0,0,0h-2c-0.1,0-0.2-0.1-0.3-0.2c0,0,0,0,0,0V309.3z"/>
<path class="st2" d="M245.4,296.8c-0.1,0-0.2-0.1-0.2-0.2c0,0,0,0,0,0v-1.9c0-0.1,0.1-0.2,0.2-0.2c0,0,0,0,0,0h1.7
	c0.1,0,0.2,0.1,0.3,0.2c0,0,0,0,0,0v1.9c0,0.1-0.1,0.2-0.2,0.3c0,0,0,0,0,0H245.4z M245.4,311.8c-0.1,0-0.2-0.1-0.3-0.2c0,0,0,0,0,0
	v-11.7c0-0.1,0.1-0.2,0.2-0.2c0,0,0,0,0,0h1.6c0.1,0,0.2,0.1,0.3,0.2c0,0,0,0,0,0v11.8c0,0.1-0.1,0.3-0.2,0.3c0,0,0,0,0,0
	L245.4,311.8z"/>
<path class="st2" d="M263.5,308.8c-0.5-2-0.5-4.2,0-6.2c1.1-2.7,4.1-4,6.8-2.9c1.3,0.5,2.4,1.6,2.9,2.9c0.5,2,0.5,4.2,0,6.2
	c-1,2.7-4.1,4-6.7,3C265.1,311.2,264,310.1,263.5,308.8z M271.1,308.2c0.2-0.8,0.3-1.7,0.3-2.5c0-0.8-0.1-1.7-0.3-2.5
	c-0.6-1.5-2.4-2.2-3.9-1.6c-0.7,0.3-1.3,0.9-1.6,1.6c-0.2,0.8-0.3,1.7-0.3,2.5c0,0.8,0.1,1.7,0.3,2.5c0.6,1.5,2.4,2.2,3.9,1.6
	C270.2,309.5,270.8,308.9,271.1,308.2z"/>
</svg>
